<?xml version="1.0" encoding="UTF-8"?>
<svg width="130px" height="160px" viewBox="0 0 130 160" version="1.1" xmlns="http://www.w3.org/2000/svg" xmlns:xlink="http://www.w3.org/1999/xlink">
    <title>Group 2 2</title>
    <g id="Page-1" stroke="none" stroke-width="1" fill="none" fill-rule="evenodd">
        <g id="Press-Kit" transform="translate(-377.000000, -381.000000)">
            <rect fill="#FFFFFF" x="0" y="0" width="1440" height="900"></rect>
            <g id="Group" transform="translate(378.000000, 382.000000)">
                <g id="streamlinehq-padlock-shield-users-128">
                    <path d="M64.2461538,0 L122.034204,20.2052051 C125.60607,21.4551381 128,24.8323091 128,28.6246825 L128,90.6576664 C128,133.759023 64.2461538,157.538462 64.2461538,157.538462 C64.2461538,157.538462 0.492307692,133.759023 0.492307692,90.6576664 L0.492307692,28.6246825 C0.492307692,24.8320617 2.88574972,21.4544876 6.45810414,20.2052051 L64.2461538,0 Z" id="Path" fill="#1D3461" fill-rule="nonzero"></path>
                    <path d="M64,157.538462 C64,157.538462 0,133.759023 0,90.6576664 L0,28.6246825 C0,24.8320617 2.40268312,21.4544876 5.98883041,20.2052051 L64,0 L64,157.538462 Z" id="Path" fill="#00A7E1" fill-rule="nonzero"></path>
                    <path d="M64.2461538,0 L122.034204,20.2052051 C125.60607,21.4551381 128,24.8323091 128,28.6246825 L128,90.6576664 C128,133.759023 64.2461538,157.538462 64.2461538,157.538462 C64.2461538,157.538462 0.492307692,133.759023 0.492307692,90.6576664 L0.492307692,28.6246825 C0.492307692,24.8320617 2.88574972,21.4544876 6.45810414,20.2052051 L64.2461538,0 Z" id="Path" stroke="#000000" stroke-width="1.28" stroke-linecap="round" stroke-linejoin="round"></path>
                    <path d="M21.1692308,76.0615385 C21.1692308,99.8522661 40.4554262,119.138462 64.2461538,119.138462 C88.0368815,119.138462 107.323077,99.8522661 107.323077,76.0615385 C107.323077,60.6716361 99.1126618,46.4507799 85.7846154,38.7558288 C72.456569,31.0608776 56.0357387,31.0608776 42.7076923,38.7558288 C29.3796459,46.4507799 21.1692308,60.6716361 21.1692308,76.0615385 L21.1692308,76.0615385 Z" id="Path" fill="#F5F5F5" fill-rule="nonzero"></path>
                    <path d="M64.2461538,52.3597497 C84.3057935,52.3690385 101.702045,66.1795807 106.194274,85.6615385 C110.230793,68.4204547 103.230919,50.478476 88.5679448,40.4819842 C73.9049711,30.4854924 54.5873366,30.4854924 39.9243629,40.4819842 C25.2613891,50.478476 18.2615144,68.4204547 22.2980339,85.6615385 C26.7902631,66.1795807 44.1865142,52.3690385 64.2461538,52.3597497 L64.2461538,52.3597497 Z" id="Path" fill="#FFFFFF" fill-rule="nonzero"></path>
                    <path d="M21.1692308,76.0615385 C21.1692308,99.8522661 40.4554262,119.138462 64.2461538,119.138462 C88.0368815,119.138462 107.323077,99.8522661 107.323077,76.0615385 C107.323077,60.6716361 99.1126618,46.4507799 85.7846154,38.7558288 C72.456569,31.0608776 56.0357387,31.0608776 42.7076923,38.7558288 C29.3796459,46.4507799 21.1692308,60.6716361 21.1692308,76.0615385 L21.1692308,76.0615385 Z" id="Path" stroke="#000000" stroke-width="1.28" stroke-linecap="round" stroke-linejoin="round"></path>
                </g>
                <g id="streamlinehq-patrol-ai-4-artificial-intelligence-128" transform="translate(37.556834, 50.321274)">
                    <path d="M1.1376911,25.2084455 C1.1376911,39.1306855 12.4308973,50.416891 26.3617731,50.416891 C40.2926489,50.416891 51.585855,39.1306855 51.585855,25.2084455 C51.585855,11.2862055 40.2926489,0 26.3617731,0 C12.4308973,0 1.1376911,11.2862055 1.1376911,25.2084455 Z" id="Path" stroke="#F5F5F5" stroke-width="1.28" fill="#F5F5F5" fill-rule="nonzero"></path>
                    <path d="M30.8188683,47.7107644 C30.2546011,47.7116969 29.7554988,47.3452572 29.5875542,46.8068956 C29.4196096,46.2685339 29.6219499,45.6836114 30.0867394,45.3638581 L30.0867394,39.5772594 L27.5157748,37.009149 C27.3784806,36.8718674 27.3011665,36.6858395 27.3007395,36.4917457 L27.3007395,26.0907411 L25.4228066,26.0907411 L25.4228066,36.4892248 C25.4222732,36.6831738 25.3452325,36.8690889 25.2084019,37.0066282 L22.6368068,39.5772594 L22.6368068,45.3619674 C23.1015348,45.6822652 23.3037842,46.267413 23.1359467,46.8060786 C22.9681093,47.3447441 22.4692042,47.7116969 21.9046778,47.7116969 C21.3401514,47.7116969 20.8412463,47.3447441 20.6734088,46.8060786 C20.5055713,46.267413 20.7078208,45.6822652 21.1725488,45.3619674 L21.1725488,39.2753883 C21.1730822,39.0814394 21.2501229,38.8955242 21.3869535,38.7579849 L23.9585486,36.1892443 L23.9585486,26.0907411 L20.9657113,26.0907411 L20.9657113,37.2038843 C20.9651098,37.3978196 20.8880794,37.5837099 20.7513066,37.7212876 L18.1803421,40.2906584 L18.1803421,43.5381364 C18.6446686,43.8583886 18.8466377,44.4432048 18.6788153,44.981502 C18.5109929,45.5197993 18.0123832,45.88647 17.4482131,45.88647 C16.884043,45.88647 16.3854333,45.5197993 16.2176109,44.981502 C16.0497885,44.4432048 16.2517576,43.8583886 16.7160841,43.5381364 L16.7160841,39.9875269 C16.7166175,39.7935779 16.7936582,39.6076628 16.9304888,39.4701235 L19.5014534,36.9007527 L19.5014534,26.0907411 L16.5092466,26.0907411 L16.5092466,34.2645795 C16.509655,34.4588399 16.4322132,34.6451752 16.2942113,34.7819829 L13.7238774,37.3513537 L13.7238774,39.8873233 C14.1886054,40.207621 14.3908548,40.7927689 14.2230174,41.3314344 C14.0551799,41.8701 13.5562748,42.2370527 12.9917484,42.2370527 C12.427222,42.2370527 11.9283169,41.8701 11.7604795,41.3314344 C11.592642,40.7927689 11.7948914,40.207621 12.2596194,39.8873233 L12.2596194,37.0513732 C12.2588324,36.8571623 12.3360743,36.6707614 12.4740241,36.5339698 L15.0443581,33.9639688 L15.0443581,27.1236571 L9.05363862,33.1106629 C8.91601404,33.2474088 8.72998356,33.3244016 8.53591434,33.3249347 L5.13696929,33.3249347 C4.81647288,33.7893746 4.2309621,33.9914987 3.69196242,33.8237653 C3.15296275,33.6560318 2.78578234,33.1574361 2.78578234,32.5932596 C2.78578234,32.0290831 3.15296275,31.5304873 3.69196242,31.3627539 C4.2309621,31.1950205 4.81647288,31.3971445 5.13696929,31.8615845 L8.23133355,31.8615845 L14.0095401,26.0907411 L10.5090681,26.0907411 L7.38065139,29.2140675 C7.24328456,29.3512766 7.05714132,29.4285427 6.8629271,29.4289695 L2.35096944,29.4289695 C2.03037517,29.8932561 1.44490444,30.0952204 0.905997223,29.927428 C0.367090002,29.7596356 0,29.261085 0,28.6969792 C0,28.1328735 0.367090002,27.6343229 0.905997223,27.4665305 C1.44490444,27.2987381 2.03037517,27.5007024 2.35096944,27.964989 L6.56086872,27.964989 L9.1709306,25.3565451 L6.56086872,22.7506221 L2.35096944,22.7506221 C2.03042083,23.2145074 1.44528195,23.4161915 0.906743308,23.2484142 C0.368204662,23.0806369 0.00139686952,22.5823814 0.00139686952,22.0186318 C0.00139686952,21.4548822 0.368204662,20.9566268 0.906743308,20.7888494 C1.44528195,20.6210721 2.03042083,20.8227563 2.35096944,21.2866416 L6.8622965,21.2866416 C7.05636573,21.2871747 7.2423962,21.3641676 7.38002078,21.5009134 L10.5084375,24.6273908 L14.0082789,24.6273908 L8.23070295,18.8527662 L5.13696929,18.8527662 C4.81647288,19.3172061 4.2309621,19.5193302 3.69196242,19.3515967 C3.15296275,19.1838633 2.78578234,18.6852675 2.78578234,18.121091 C2.78578234,17.5569146 3.15296275,17.0583188 3.69196242,16.8905854 C4.2309621,16.7228519 4.81647288,16.924976 5.13696929,17.3894159 L8.53465313,17.3894159 C8.72872236,17.389949 8.91475283,17.4669419 9.05237742,17.6036877 L15.0430969,23.5906935 L15.0430969,16.7516422 L12.4740241,14.1797506 C12.3372513,14.0421728 12.260221,13.8562825 12.2596194,13.6623472 L12.2596194,10.8263971 C11.7952929,10.506145 11.5933238,9.92132874 11.7611462,9.38303151 C11.9289686,8.84473429 12.4275784,8.47806352 12.9917484,8.47806352 C13.5559185,8.47806352 14.0545282,8.84473429 14.2223506,9.38303151 C14.390173,9.92132874 14.1882039,10.506145 13.7238774,10.8263971 L13.7238774,13.3604761 L16.2942113,15.9298469 C16.4323327,16.0665743 16.5097963,16.252962 16.5092466,16.4472503 L16.5092466,24.62487 L19.5014534,24.62487 L19.5014534,15.6380592 L16.9304888,13.0680581 C16.7927184,12.9311464 16.715509,12.744824 16.7160841,12.5506548 L16.7160841,7.1749538 C16.2513561,6.85465606 16.0491067,6.26950823 16.2169441,5.73084269 C16.3847816,5.19217714 16.8836867,4.82522435 17.4482131,4.82522435 C18.0127395,4.82522435 18.5116446,5.19217714 18.6794821,5.73084269 C18.8473195,6.26950823 18.6450701,6.85465606 18.1803421,7.1749538 L18.1803421,12.2481535 L20.7494148,14.8175243 C20.887245,14.954396 20.9644652,15.1407445 20.9638195,15.3349276 L20.9638195,24.62487 L23.9566568,24.62487 L23.9566568,10.873663 L21.3850617,8.30429215 C21.2474696,8.16726101 21.1702924,7.98101641 21.170657,7.78688881 L21.170657,3.52414068 C20.705929,3.20384294 20.5036795,2.61869512 20.671517,2.08002957 C20.8393545,1.54136402 21.3382596,1.17441123 21.902786,1.17441123 C22.4673124,1.17441123 22.9662174,1.54136402 23.1340549,2.08002957 C23.3018924,2.61869512 23.099643,3.20384294 22.6349149,3.52414068 L22.6349149,7.48375725 L25.2065101,10.0531281 C25.3441022,10.1901592 25.4212794,10.3764038 25.4209148,10.5705314 L25.4209148,24.6242398 L27.2988477,24.6242398 L27.2988477,10.5705314 C27.2984393,10.3762711 27.3758812,10.1899357 27.513883,10.0531281 L30.0848476,7.48375725 L30.0848476,3.52414068 C29.620521,3.20388853 29.4185519,2.6190723 29.5863743,2.08077507 C29.7541967,1.54247784 30.2528065,1.17580708 30.8169765,1.17580708 C31.3811466,1.17580708 31.8797563,1.54247784 32.0475787,2.08077507 C32.2154011,2.6190723 32.0134321,3.20388853 31.5491055,3.52414068 L31.5491055,7.78688881 C31.5494701,7.98101641 31.4722929,8.16726101 31.3347008,8.30429215 L28.7637363,10.873663 L28.7637363,24.62487 L31.755943,24.62487 L31.755943,15.3349276 C31.7555784,15.1408 31.8327556,14.9545554 31.9703477,14.8175243 L34.5413122,12.2481535 L34.5413122,7.1749538 C34.0767377,6.85455826 33.874648,6.26945047 34.0425445,5.73087732 C34.210441,5.19230417 34.7093008,4.82544173 35.2737565,4.82544173 C35.8382122,4.82544173 36.337072,5.19230417 36.5049685,5.73087732 C36.672865,6.26945047 36.4707754,6.85455826 36.0062008,7.1749538 L36.0062008,12.5506548 C36.0067759,12.744824 35.9295666,12.9311464 35.7917961,13.0680581 L33.2202009,15.6380592 L33.2202009,24.62487 L36.2124077,24.62487 L36.2124077,16.4485107 C36.211858,16.2542224 36.2893216,16.0678348 36.427443,15.9311073 L39.0002993,13.3604761 L39.0002993,10.8257669 C38.5355713,10.5054692 38.3333219,9.92032135 38.5011593,9.3816558 C38.6689968,8.84299026 39.1679019,8.47603746 39.7324283,8.47603746 C40.2969547,8.47603746 40.7958598,8.84299026 40.9636973,9.3816558 C41.1315347,9.92032135 40.9292853,10.5054692 40.4645573,10.8257669 L40.4645573,13.661717 C40.464229,13.855707 40.3871573,14.0416971 40.2501526,14.1791204 L37.679188,16.7484912 L37.679188,23.5900633 L43.6699075,17.6030575 C43.8075321,17.4663117 43.9935626,17.3893188 44.1876318,17.3887857 L47.584685,17.3887857 C47.9051358,16.924747 48.4903148,16.7229031 49.0289459,16.8906215 C49.5675771,17.0583399 49.9344753,17.5566405 49.9344753,18.1204608 C49.9344753,18.6842812 49.5675771,19.1825818 49.0289459,19.3503002 C48.4903148,19.5180185 47.9051358,19.3161747 47.584685,18.852136 L44.4922126,18.852136 L38.7146366,24.6267606 L42.214478,24.6267606 L45.3428947,21.4983925 C45.4800109,21.3608857 45.666371,21.2837564 45.860619,21.2841207 L50.3725767,21.2841207 C50.6931709,20.8198341 51.2786417,20.6178698 51.8175489,20.7856622 C52.3564561,20.9534546 52.7235461,21.4520052 52.7235461,22.016111 C52.7235461,22.5802168 52.3564561,23.0787673 51.8175489,23.2465597 C51.2786417,23.4143521 50.6931709,23.2123878 50.3725767,22.7481012 L46.1626774,22.7481012 L43.5519849,25.3565451 L46.1626774,27.964989 L50.3713155,27.964989 C50.6919097,27.5007024 51.2773805,27.2987381 51.8162877,27.4665305 C52.3551949,27.6343229 52.7222849,28.1328735 52.7222849,28.6969792 C52.7222849,29.261085 52.3551949,29.7596356 51.8162877,29.927428 C51.2773805,30.0952204 50.6919097,29.8932561 50.3713155,29.4289695 L45.860619,29.4289695 C45.6662382,29.4293776 45.4797873,29.3519838 45.3428947,29.2140675 L42.214478,26.0907411 L38.7146366,26.0907411 L44.4922126,31.8653657 L47.5865768,31.8653657 C47.9070276,31.401327 48.4922066,31.1994831 49.0308377,31.3672015 C49.5694689,31.5349199 49.9363671,32.0332205 49.9363671,32.5970409 C49.9363671,33.1608612 49.5694689,33.6591618 49.0308377,33.8268802 C48.4922066,33.9945986 47.9070276,33.7927547 47.5865768,33.328716 L44.1895236,33.328716 C43.9954544,33.3281829 43.8094239,33.25119 43.6717993,33.1144442 L37.6810798,27.1274384 L37.6810798,33.9652292 L40.2520444,36.5352303 C40.3899942,36.6720218 40.4672361,36.8584227 40.4664491,37.0526336 L40.4664491,39.8885837 C40.9307756,40.2088359 41.1327447,40.7936521 40.9649223,41.3319493 C40.7970999,41.8702466 40.2984902,42.2369173 39.7343201,42.2369173 C39.1701501,42.2369173 38.6715403,41.8702466 38.5037179,41.3319493 C38.3358955,40.7936521 38.5378646,40.2088359 39.0021911,39.8885837 L39.0021911,37.3513537 L36.4312266,34.7819829 C36.2932247,34.6451752 36.2157829,34.4588399 36.2161913,34.2645795 L36.2161913,26.0907411 L33.2220927,26.0907411 L33.2220927,36.9007527 L35.7936879,39.4701235 C35.9305185,39.6076628 36.0075592,39.7935779 36.0080926,39.9875269 L36.0080926,43.5381364 C36.4726672,43.8585319 36.6747568,44.4436397 36.5068603,44.9822129 C36.3389638,45.520786 35.840104,45.8876485 35.2756483,45.8876485 C34.7111926,45.8876485 34.2123328,45.520786 34.0444363,44.9822129 C33.8765398,44.4436397 34.0786295,43.8585319 34.543204,43.5381364 L34.543204,40.2906584 L31.9741313,37.7212876 C31.8373585,37.5837099 31.7603281,37.3978196 31.7597266,37.2038843 L31.7597266,26.0907411 L28.7656281,26.0907411 L28.7656281,36.1892443 L31.3365926,38.7579849 C31.4734233,38.8955242 31.5504639,39.0814394 31.5509973,39.2753883 L31.5509973,45.3632279 C32.0154773,45.6832559 32.2175745,46.2680779 32.0497004,46.8063579 C31.8818264,47.344638 31.3830372,47.7111446 30.8188683,47.7107644 L30.8188683,47.7107644 Z" id="Path" stroke="#00B8F0" stroke-width="1.28" fill="#FFFFFF" fill-rule="nonzero" stroke-linecap="round" stroke-linejoin="round"></path>
                    <path d="M43.9057527,24.7357871 C44.0981023,25.0227229 44.0981023,25.3973192 43.9057527,25.6842549 C42.5121221,27.7557589 36.3883456,35.9125817 26.3617731,35.9125817 C16.3352005,35.9125817 10.211424,27.7557589 8.81779345,25.6842549 C8.62544381,25.3973192 8.62544381,25.0227229 8.81779345,24.7357871 C10.211424,22.6642831 16.3352005,14.5068302 26.3617731,14.5068302 C36.3883456,14.5068302 42.5121221,22.6642831 43.9057527,24.7357871 Z" id="Path" fill="#FFFFFF" fill-rule="nonzero"></path>
                    <path d="M43.9713353,24.8530064 C40.6165324,28.4855434 34.6333801,33.2625438 26.3617731,33.2625438 C18.090166,33.2625438 12.1101668,28.4855434 8.75158024,24.8530064 L8.81464044,24.7357871 C8.6222908,25.0227229 8.6222908,25.3973192 8.81464044,25.6842549 C10.211424,27.7557589 16.3352005,35.9125817 26.3617731,35.9125817 C36.3883456,35.9125817 42.5121221,27.7557589 43.9057527,25.6842549 C44.0981023,25.3973192 44.0981023,25.0227229 43.9057527,24.7357871" id="Path" fill="#C7F0FF" fill-rule="nonzero"></path>
                    <polyline id="Path" stroke="#4ACFFF" stroke-width="1.28" stroke-linecap="round" stroke-linejoin="round" points="17.2565101 16.921169 17.6033412 20.0923915 19.0020165 20.0923915 23.1311988 24.6097449"></polyline>
                    <polyline id="Path" stroke="#4ACFFF" stroke-width="1.28" stroke-linecap="round" stroke-linejoin="round" points="35.4664054 16.921169 35.1202049 20.0923915 33.7215296 20.0923915 29.5917168 24.6097449"></polyline>
                    <polyline id="Path" stroke="#4ACFFF" stroke-width="1.28" stroke-linecap="round" stroke-linejoin="round" points="17.2565101 33.4982428 17.6033412 30.3276506 19.0020165 30.3276506 23.1311988 25.8102971"></polyline>
                    <polyline id="Path" stroke="#4ACFFF" stroke-width="1.28" stroke-linecap="round" stroke-linejoin="round" points="35.4664054 33.4982428 35.1202049 30.3276506 33.7215296 30.3276506 29.5923474 25.8102971"></polyline>
                    <path d="M18.7119396,25.2097059 C18.7119396,29.4319732 22.1368867,32.8547972 26.3617731,32.8547972 C30.5866594,32.8547972 34.0116065,29.4319732 34.0116065,25.2097059 C34.0116065,20.9874386 30.5866594,17.5646146 26.3617731,17.5646146 C22.1368867,17.5646146 18.7119396,20.9874386 18.7119396,25.2097059 Z" id="Path" fill="#FF6242" fill-rule="nonzero"></path>
                    <path d="M43.9057527,24.7357871 C44.0981023,25.0227229 44.0981023,25.3973192 43.9057527,25.6842549 C42.5121221,27.7557589 36.3883456,35.9125817 26.3617731,35.9125817 C16.3352005,35.9125817 10.211424,27.7557589 8.81779345,25.6842549 C8.62544381,25.3973192 8.62544381,25.0227229 8.81779345,24.7357871 C10.211424,22.6642831 16.3352005,14.5068302 26.3617731,14.5068302 C36.3883456,14.5068302 42.5121221,22.6642831 43.9057527,24.7357871 Z" id="Path" stroke="#00658A" stroke-width="1.28" stroke-linecap="round" stroke-linejoin="round"></path>
                    <path d="M18.7119396,25.2097059 C18.7119396,29.4319732 22.1368867,32.8547972 26.3617731,32.8547972 C30.5866594,32.8547972 34.0116065,29.4319732 34.0116065,25.2097059 C34.0116065,20.9874386 30.5866594,17.5646146 26.3617731,17.5646146 C22.1368867,17.5646146 18.7119396,20.9874386 18.7119396,25.2097059 Z" id="Path" stroke="#000000" stroke-width="1.28" stroke-linecap="round" stroke-linejoin="round"></path>
                    <path d="M20.8591396,25.2097059 C20.8591396,28.2468426 23.3227525,30.7089283 26.3617731,30.7089283 C29.4007936,30.7089283 31.8644065,28.2468426 31.8644065,25.2097059 C31.8644065,22.1725693 29.4007936,19.7104835 26.3617731,19.7104835 C23.3227525,19.7104835 20.8591396,22.1725693 20.8591396,25.2097059 L20.8591396,25.2097059 Z" id="Path" fill="#FFA694" fill-rule="nonzero"></path>
                    <path d="M23.0763364,25.2097059 C23.0763364,27.0230777 24.5472765,28.4931059 26.3617731,28.4931059 C28.1762696,28.4931059 29.6472097,27.0230777 29.6472097,25.2097059 C29.6472097,23.3963341 28.1762696,21.9263059 26.3617731,21.9263059 C24.5472765,21.9263059 23.0763364,23.3963341 23.0763364,25.2097059 Z" id="Path" stroke="#FF6242" stroke-width="1.28" fill="#FFFFFF" fill-rule="nonzero" stroke-linecap="round" stroke-linejoin="round"></path>
                </g>
            </g>
        </g>
    </g>
</svg>