<?xml version="1.0" encoding="UTF-8"?>
<svg width="66px" height="81px" viewBox="0 0 66 81" version="1.1" xmlns="http://www.w3.org/2000/svg" xmlns:xlink="http://www.w3.org/1999/xlink">
    <title>Group 2 3</title>
    <g id="Page-1" stroke="none" stroke-width="1" fill="none" fill-rule="evenodd">
        <g id="Press-Kit" transform="translate(-560.000000, -460.000000)">
            <rect fill="#FFFFFF" x="0" y="0" width="1440" height="900"></rect>
            <g id="Group" transform="translate(561.000000, 461.000000)">
                <g id="streamlinehq-padlock-shield-users-128">
                    <path d="M32.1230769,0 L61.0171018,10.1026026 C62.8030351,10.727569 64,12.4161546 64,14.3123412 L64,45.3288332 C64,66.8795113 32.1230769,78.7692308 32.1230769,78.7692308 C32.1230769,78.7692308 0.246153846,66.8795113 0.246153846,45.3288332 L0.246153846,14.3123412 C0.246153846,12.4160309 1.44287486,10.7272438 3.22905207,10.1026026 L32.1230769,0 Z" id="Path" fill="#1D3461" fill-rule="nonzero"></path>
                    <path d="M32,78.7692308 C32,78.7692308 0,66.8795113 0,45.3288332 L0,14.3123412 C0,12.4160309 1.20134156,10.7272438 2.9944152,10.1026026 L32,0 L32,78.7692308 Z" id="Path" fill="#00A7E1" fill-rule="nonzero"></path>
                    <path d="M32.1230769,0 L61.0171018,10.1026026 C62.8030351,10.727569 64,12.4161546 64,14.3123412 L64,45.3288332 C64,66.8795113 32.1230769,78.7692308 32.1230769,78.7692308 C32.1230769,78.7692308 0.246153846,66.8795113 0.246153846,45.3288332 L0.246153846,14.3123412 C0.246153846,12.4160309 1.44287486,10.7272438 3.22905207,10.1026026 L32.1230769,0 Z" id="Path" stroke="#000000" stroke-width="1.28" stroke-linecap="round" stroke-linejoin="round"></path>
                    <path d="M10.5846154,38.0307692 C10.5846154,49.9261331 20.2277131,59.5692308 32.1230769,59.5692308 C44.0184408,59.5692308 53.6615385,49.9261331 53.6615385,38.0307692 C53.6615385,30.3358181 49.5563309,23.22539 42.8923077,19.3779144 C36.2282845,15.5304388 28.0178693,15.5304388 21.3538462,19.3779144 C14.689823,23.22539 10.5846154,30.3358181 10.5846154,38.0307692 L10.5846154,38.0307692 Z" id="Path" fill="#F5F5F5" fill-rule="nonzero"></path>
                    <path d="M32.1230769,26.1798749 C42.1528967,26.1845193 50.8510223,33.0897903 53.0971369,42.8307692 C55.1153966,34.2102274 51.6154593,25.239238 44.2839724,20.2409921 C36.9524855,15.2427462 27.2936683,15.2427462 19.9621814,20.2409921 C12.6306946,25.239238 9.1307572,34.2102274 11.149017,42.8307692 C13.3951315,33.0897903 22.0932571,26.1845193 32.1230769,26.1798749 L32.1230769,26.1798749 Z" id="Path" fill="#FFFFFF" fill-rule="nonzero"></path>
                    <path d="M10.5846154,38.0307692 C10.5846154,49.9261331 20.2277131,59.5692308 32.1230769,59.5692308 C44.0184408,59.5692308 53.6615385,49.9261331 53.6615385,38.0307692 C53.6615385,30.3358181 49.5563309,23.22539 42.8923077,19.3779144 C36.2282845,15.5304388 28.0178693,15.5304388 21.3538462,19.3779144 C14.689823,23.22539 10.5846154,30.3358181 10.5846154,38.0307692 L10.5846154,38.0307692 Z" id="Path" stroke="#000000" stroke-width="1.28" stroke-linecap="round" stroke-linejoin="round"></path>
                </g>
                <g id="streamlinehq-patrol-ai-4-artificial-intelligence-128" transform="translate(18.778417, 25.160637)">
                    <path d="M0.56884555,12.6042227 C0.56884555,19.5653427 6.21544863,25.2084455 13.1808865,25.2084455 C20.1463244,25.2084455 25.7929275,19.5653427 25.7929275,12.6042227 C25.7929275,5.64310274 20.1463244,0 13.1808865,0 C6.21544863,0 0.56884555,5.64310274 0.56884555,12.6042227 Z" id="Path" stroke="#F5F5F5" stroke-width="1.28" fill="#F5F5F5" fill-rule="nonzero"></path>
                    <path d="M15.4094342,23.8553822 C15.1273005,23.8558484 14.8777494,23.6726286 14.7937771,23.4034478 C14.7098048,23.134267 14.810975,22.8418057 15.0433697,22.681929 L15.0433697,19.7886297 L13.7578874,18.5045745 C13.6892403,18.4359337 13.6505833,18.3429198 13.6503698,18.2458728 L13.6503698,13.0453705 L12.7114033,13.0453705 L12.7114033,18.2446124 C12.7111366,18.3415869 12.6726163,18.4345445 12.604201,18.5033141 L11.3184034,19.7886297 L11.3184034,22.6809837 C11.5507674,22.8411326 11.6518921,23.1337065 11.5679734,23.4030393 C11.4840546,23.6723721 11.2346021,23.8558484 10.9523389,23.8558484 C10.6700757,23.8558484 10.4206231,23.6723721 10.3367044,23.4030393 C10.2527857,23.1337065 10.3539104,22.8411326 10.5862744,22.6809837 L10.5862744,19.6376941 C10.5865411,19.5407197 10.6250614,19.4477621 10.6934767,19.3789925 L11.9792743,18.0946222 L11.9792743,13.0453705 L10.4828557,13.0453705 L10.4828557,18.6019421 C10.4825549,18.6989098 10.4440397,18.7918549 10.3756533,18.8606438 L9.09017104,20.1453292 L9.09017104,21.7690682 C9.32233431,21.9291943 9.42331885,22.2216024 9.33940765,22.490751 C9.25549644,22.7598996 9.00619158,22.943235 8.72410655,22.943235 C8.44202152,22.943235 8.19271666,22.7598996 8.10880545,22.490751 C8.02489425,22.2216024 8.12587879,21.9291943 8.35804206,21.7690682 L8.35804206,19.9937634 C8.35830877,19.896789 8.39682909,19.8038314 8.46524441,19.7350618 L9.75072668,18.4503764 L9.75072668,13.0453705 L8.25462332,13.0453705 L8.25462332,17.1322898 C8.25482752,17.2294199 8.2161066,17.3225876 8.14710567,17.3909914 L6.8619387,18.6756768 L6.8619387,19.9436616 C7.0943027,20.1038105 7.19542742,20.3963844 7.11150869,20.6657172 C7.02758995,20.93505 6.77813741,21.1185264 6.49587421,21.1185264 C6.213611,21.1185264 5.96415847,20.93505 5.88023973,20.6657172 C5.79632099,20.3963844 5.89744572,20.1038105 6.12980972,19.9436616 L6.12980972,18.5256866 C6.12941621,18.4285811 6.16803716,18.3353807 6.23701207,18.2669849 L7.52217904,16.9819844 L7.52217904,13.5618286 L4.52681931,16.5553315 C4.45800702,16.6237044 4.36499178,16.6622008 4.26795717,16.6624674 L2.56848465,16.6624674 C2.40823644,16.8946873 2.11548105,16.9957494 1.84598121,16.9118826 C1.57648137,16.8280159 1.39289117,16.578718 1.39289117,16.2966298 C1.39289117,16.0145416 1.57648137,15.7652437 1.84598121,15.681377 C2.11548105,15.5975102 2.40823644,15.6985723 2.56848465,15.9307922 L4.11566677,15.9307922 L7.00477006,13.0453705 L5.25453407,13.0453705 L3.69032569,14.6070337 C3.62164228,14.6756383 3.52857066,14.7142714 3.43146355,14.7144847 L1.17548472,14.7144847 C1.01518759,14.946628 0.722452222,15.0476102 0.452998611,14.963714 C0.183545001,14.8798178 0,14.6305425 0,14.3484896 C0,14.0664367 0.183545001,13.8171614 0.452998611,13.7332652 C0.722452222,13.649369 1.01518759,13.7503512 1.17548472,13.9824945 L3.28043436,13.9824945 L4.5854653,12.6782726 L3.28043436,11.375311 L1.17548472,11.375311 C1.01521042,11.6072537 0.722640977,11.7080958 0.453371654,11.6242071 C0.184102331,11.5403184 0.000698434761,11.2911907 0.000698434761,11.0093159 C0.000698434761,10.7274411 0.184102331,10.4783134 0.453371654,10.3944247 C0.722640977,10.3105361 1.01521042,10.4113781 1.17548472,10.6433208 L3.43114825,10.6433208 C3.52818286,10.6435873 3.6211981,10.6820838 3.69001039,10.7504567 L5.25421877,12.3136954 L7.00413946,12.3136954 L4.11535147,9.42638308 L2.56848465,9.42638308 C2.40823644,9.65860304 2.11548105,9.75966508 1.84598121,9.67579836 C1.57648137,9.59193165 1.39289117,9.34263375 1.39289117,9.06054552 C1.39289117,8.77845729 1.57648137,8.52915939 1.84598121,8.44529268 C2.11548105,8.36142596 2.40823644,8.462488 2.56848465,8.69470795 L4.26732657,8.69470795 C4.36436118,8.6949745 4.45737642,8.73347094 4.52618871,8.80184385 L7.52154844,11.7953467 L7.52154844,8.37582112 L6.23701207,7.08987529 C6.16862566,7.02108642 6.13011049,6.92814126 6.12980972,6.83117362 L6.12980972,5.41319856 C5.89764645,5.25307249 5.79666191,4.96066437 5.88057311,4.69151576 C5.96448432,4.42236714 6.21378918,4.23903176 6.49587421,4.23903176 C6.77795924,4.23903176 7.0272641,4.42236714 7.11117531,4.69151576 C7.19508651,4.96066437 7.09410197,5.25307249 6.8619387,5.41319856 L6.8619387,6.68023805 L8.14710567,7.96492346 C8.21616634,8.03328717 8.25489813,8.12648098 8.25462332,8.22362513 L8.25462332,12.312435 L9.75072668,12.312435 L9.75072668,7.81902958 L8.46524441,6.53402907 C8.39635918,6.46557319 8.35775448,6.37241199 8.35804206,6.2753274 L8.35804206,3.5874769 C8.12567806,3.42732803 8.02455333,3.13475412 8.10847207,2.86542134 C8.19239081,2.59608857 8.44184334,2.41261217 8.72410655,2.41261217 C9.00636975,2.41261217 9.25582229,2.59608857 9.33974103,2.86542134 C9.42365976,3.13475412 9.32253504,3.42732803 9.09017104,3.5874769 L9.09017104,6.12407673 L10.3747074,7.40876213 C10.4436225,7.47719802 10.4822326,7.57037226 10.4819098,7.6674638 L10.4819098,12.312435 L11.9783284,12.312435 L11.9783284,5.43683148 L10.6925308,4.15214608 C10.6237348,4.0836305 10.5851462,3.99050821 10.5853285,3.89344441 L10.5853285,1.76207034 C10.3529645,1.60192147 10.2518398,1.30934756 10.3357585,1.04001478 C10.4196772,0.77068201 10.6691298,0.587205614 10.951393,0.587205614 C11.2336562,0.587205614 11.4831087,0.77068201 11.5670275,1.04001478 C11.6509462,1.30934756 11.5498215,1.60192147 11.3174575,1.76207034 L11.3174575,3.74187863 L12.6032551,5.02656403 C12.6720511,5.0950796 12.7106397,5.1882019 12.7104574,5.2852657 L12.7104574,12.3121199 L13.6494239,12.3121199 L13.6494239,5.2852657 C13.6492197,5.18813553 13.6879406,5.09496787 13.7569415,5.02656403 L15.0424238,3.74187863 L15.0424238,1.76207034 C14.8102605,1.60194426 14.709276,1.30953615 14.7931872,1.04038753 C14.8770984,0.77123892 15.1264032,0.587903538 15.4084883,0.587903538 C15.6905733,0.587903538 15.9398782,0.77123892 16.0237894,1.04038753 C16.1077006,1.30953615 16.006716,1.60194426 15.7745528,1.76207034 L15.7745528,3.89344441 C15.774735,3.99050821 15.7361465,4.0836305 15.6673504,4.15214608 L14.3818681,5.43683148 L14.3818681,12.312435 L15.8779715,12.312435 L15.8779715,7.6674638 C15.8777892,7.5704 15.9163778,7.4772777 15.9851738,7.40876213 L17.2706561,6.12407673 L17.2706561,3.5874769 C17.0383688,3.42727913 16.937324,3.13472523 17.0212723,2.86543866 C17.1052205,2.59615208 17.3546504,2.41272086 17.6368783,2.41272086 C17.9191061,2.41272086 18.168536,2.59615208 18.2524843,2.86543866 C18.3364325,3.13472523 18.2353877,3.42727913 18.0031004,3.5874769 L18.0031004,6.2753274 C18.003388,6.37241199 17.9647833,6.46557319 17.895898,6.53402907 L16.6101005,7.81902958 L16.6101005,12.312435 L18.1062038,12.312435 L18.1062038,8.22425534 C18.105929,8.12711119 18.1446608,8.03391738 18.2137215,7.96555367 L19.5001497,6.68023805 L19.5001497,5.41288346 C19.2677857,5.25273459 19.1666609,4.96016068 19.2505797,4.6908279 C19.3344984,4.42149513 19.5839509,4.23801873 19.8662142,4.23801873 C20.1484774,4.23801873 20.3979299,4.42149513 20.4818486,4.6908279 C20.5657674,4.96016068 20.4646426,5.25273459 20.2322786,5.41288346 L20.2322786,6.83085852 C20.2321145,6.92785348 20.1935787,7.02084853 20.1250763,7.08956019 L18.839594,8.37424559 L18.839594,11.7950316 L21.8349537,8.80152874 C21.903766,8.73315583 21.9967813,8.6946594 22.0938159,8.69439285 L23.7923425,8.69439285 C23.9525679,8.4623735 24.2451574,8.36145156 24.514473,8.44531074 C24.7837885,8.52916993 24.9672376,8.77832025 24.9672376,9.06023041 C24.9672376,9.34214058 24.7837885,9.5912909 24.514473,9.67515008 C24.2451574,9.75900927 23.9525679,9.65808733 23.7923425,9.42606798 L22.2461063,9.42606798 L19.3573183,12.3133803 L21.107239,12.3133803 L22.6714474,10.7491963 C22.7400054,10.6804429 22.8331855,10.6418782 22.9303095,10.6420604 L25.1862883,10.6420604 C25.3465855,10.4099171 25.6393208,10.3089349 25.9087744,10.3928311 C26.1782281,10.4767273 26.3617731,10.7260026 26.3617731,11.0080555 C26.3617731,11.2901084 26.1782281,11.5393837 25.9087744,11.6232799 C25.6393208,11.7071761 25.3465855,11.6061939 25.1862883,11.3740506 L23.0813387,11.3740506 L21.7759925,12.6782726 L23.0813387,13.9824945 L25.1856577,13.9824945 C25.3459549,13.7503512 25.6386902,13.649369 25.9081438,13.7332652 C26.1775975,13.8171614 26.3611425,14.0664367 26.3611425,14.3484896 C26.3611425,14.6305425 26.1775975,14.8798178 25.9081438,14.963714 C25.6386902,15.0476102 25.3459549,14.946628 25.1856577,14.7144847 L22.9303095,14.7144847 C22.8331191,14.7146888 22.7398936,14.6759919 22.6714474,14.6070337 L21.107239,13.0453705 L19.3573183,13.0453705 L22.2461063,15.9326829 L23.7932884,15.9326829 C23.9535138,15.7006635 24.2461033,15.5997416 24.5154189,15.6836008 C24.7847344,15.7674599 24.9681835,16.0166103 24.9681835,16.2985204 C24.9681835,16.5804306 24.7847344,16.8295809 24.5154189,16.9134401 C24.2461033,16.9972993 23.9535138,16.8963773 23.7932884,16.664358 L22.0947618,16.664358 C21.9977272,16.6640914 21.9047119,16.625595 21.8358997,16.5572221 L18.8405399,13.5637192 L18.8405399,16.9826146 L20.1260222,18.2676151 C20.1949971,18.3360109 20.2336181,18.4292113 20.2332245,18.5263168 L20.2332245,19.9442919 C20.4653878,20.1044179 20.5663724,20.3968261 20.4824612,20.6659747 C20.3985499,20.9351233 20.1492451,21.1184587 19.8671601,21.1184587 C19.585075,21.1184587 19.3357702,20.9351233 19.251859,20.6659747 C19.1679478,20.3968261 19.2689323,20.1044179 19.5010956,19.9442919 L19.5010956,18.6756768 L18.2156133,17.3909914 C18.1466124,17.3225876 18.1078914,17.2294199 18.1080956,17.1322898 L18.1080956,13.0453705 L16.6110464,13.0453705 L16.6110464,18.4503764 L17.896844,19.7350618 C17.9652593,19.8038314 18.0037796,19.896789 18.0040463,19.9937634 L18.0040463,21.7690682 C18.2363336,21.929266 18.3373784,22.2218199 18.2534302,22.4911064 C18.1694819,22.760393 17.920052,22.9438242 17.6378242,22.9438242 C17.3555963,22.9438242 17.1061664,22.760393 17.0222182,22.4911064 C16.9382699,22.2218199 17.0393147,21.929266 17.271602,21.7690682 L17.271602,20.1453292 L15.9870656,18.8606438 C15.9186792,18.7918549 15.8801641,18.6989098 15.8798633,18.6019421 L15.8798633,13.0453705 L14.382814,13.0453705 L14.382814,18.0946222 L15.6682963,19.3789925 C15.7367116,19.4477621 15.7752319,19.5407197 15.7754987,19.6376941 L15.7754987,22.6816139 C16.0077386,22.841628 16.1087872,23.1340389 16.0248502,23.403179 C15.9409132,23.672319 15.6915186,23.8555723 15.4094342,23.8553822 L15.4094342,23.8553822 Z" id="Path" stroke="#00B8F0" stroke-width="1.28" fill="#FFFFFF" fill-rule="nonzero" stroke-linecap="round" stroke-linejoin="round"></path>
                    <path d="M21.9528763,12.3678936 C22.0490512,12.5113614 22.0490512,12.6986596 21.9528763,12.8421274 C21.2560611,13.8778795 18.1941728,17.9562908 13.1808865,17.9562908 C8.16760024,17.9562908 5.10571199,13.8778795 4.40889673,12.8421274 C4.3127219,12.6986596 4.3127219,12.5113614 4.40889673,12.3678936 C5.10571199,11.3321416 8.16760024,7.25341508 13.1808865,7.25341508 C18.1941728,7.25341508 21.2560611,11.3321416 21.9528763,12.3678936 Z" id="Path" fill="#FFFFFF" fill-rule="nonzero"></path>
                    <path d="M21.9856676,12.4265032 C20.3082662,14.2427717 17.3166901,16.6312719 13.1808865,16.6312719 C9.04508299,16.6312719 6.05508338,14.2427717 4.37579012,12.4265032 L4.40732022,12.3678936 C4.3111454,12.5113614 4.3111454,12.6986596 4.40732022,12.8421274 C5.10571199,13.8778795 8.16760024,17.9562908 13.1808865,17.9562908 C18.1941728,17.9562908 21.2560611,13.8778795 21.9528763,12.8421274 C22.0490512,12.6986596 22.0490512,12.5113614 21.9528763,12.3678936" id="Path" fill="#C7F0FF" fill-rule="nonzero"></path>
                    <polyline id="Path" stroke="#4ACFFF" stroke-width="1.28" stroke-linecap="round" stroke-linejoin="round" points="8.62825504 8.46058452 8.8016706 10.0461957 9.50100827 10.0461957 11.5655994 12.3048725"></polyline>
                    <polyline id="Path" stroke="#4ACFFF" stroke-width="1.28" stroke-linecap="round" stroke-linejoin="round" points="17.7332027 8.46058452 17.5601025 10.0461957 16.8607648 10.0461957 14.7958584 12.3048725"></polyline>
                    <polyline id="Path" stroke="#4ACFFF" stroke-width="1.28" stroke-linecap="round" stroke-linejoin="round" points="8.62825504 16.7491214 8.8016706 15.1638253 9.50100827 15.1638253 11.5655994 12.9051486"></polyline>
                    <polyline id="Path" stroke="#4ACFFF" stroke-width="1.28" stroke-linecap="round" stroke-linejoin="round" points="17.7332027 16.7491214 17.5601025 15.1638253 16.8607648 15.1638253 14.7961737 12.9051486"></polyline>
                    <path d="M9.3559698,12.604853 C9.3559698,14.7159866 11.0684434,16.4273986 13.1808865,16.4273986 C15.2933297,16.4273986 17.0058033,14.7159866 17.0058033,12.604853 C17.0058033,10.4937193 15.2933297,8.7823073 13.1808865,8.7823073 C11.0684434,8.7823073 9.3559698,10.4937193 9.3559698,12.604853 Z" id="Path" fill="#FF6242" fill-rule="nonzero"></path>
                    <path d="M21.9528763,12.3678936 C22.0490512,12.5113614 22.0490512,12.6986596 21.9528763,12.8421274 C21.2560611,13.8778795 18.1941728,17.9562908 13.1808865,17.9562908 C8.16760024,17.9562908 5.10571199,13.8778795 4.40889673,12.8421274 C4.3127219,12.6986596 4.3127219,12.5113614 4.40889673,12.3678936 C5.10571199,11.3321416 8.16760024,7.25341508 13.1808865,7.25341508 C18.1941728,7.25341508 21.2560611,11.3321416 21.9528763,12.3678936 Z" id="Path" stroke="#00658A" stroke-width="1.28" stroke-linecap="round" stroke-linejoin="round"></path>
                    <path d="M9.3559698,12.604853 C9.3559698,14.7159866 11.0684434,16.4273986 13.1808865,16.4273986 C15.2933297,16.4273986 17.0058033,14.7159866 17.0058033,12.604853 C17.0058033,10.4937193 15.2933297,8.7823073 13.1808865,8.7823073 C11.0684434,8.7823073 9.3559698,10.4937193 9.3559698,12.604853 Z" id="Path" stroke="#000000" stroke-width="1.28" stroke-linecap="round" stroke-linejoin="round"></path>
                    <path d="M10.4295698,12.604853 C10.4295698,14.1234213 11.6613763,15.3544641 13.1808865,15.3544641 C14.7003968,15.3544641 15.9322033,14.1234213 15.9322033,12.604853 C15.9322033,11.0862846 14.7003968,9.85524176 13.1808865,9.85524176 C11.6613763,9.85524176 10.4295698,11.0862846 10.4295698,12.604853 L10.4295698,12.604853 Z" id="Path" fill="#FFA694" fill-rule="nonzero"></path>
                    <path d="M11.5381682,12.604853 C11.5381682,13.5115388 12.2736382,14.246553 13.1808865,14.246553 C14.0881348,14.246553 14.8236049,13.5115388 14.8236049,12.604853 C14.8236049,11.6981671 14.0881348,10.9631529 13.1808865,10.9631529 C12.2736382,10.9631529 11.5381682,11.6981671 11.5381682,12.604853 Z" id="Path" stroke="#FF6242" stroke-width="1.28" fill="#FFFFFF" fill-rule="nonzero" stroke-linecap="round" stroke-linejoin="round"></path>
                </g>
            </g>
        </g>
    </g>
</svg>