<?xml version="1.0" encoding="UTF-8"?>
<svg width="18px" height="18px" viewBox="0 0 18 18" version="1.1" xmlns="http://www.w3.org/2000/svg" xmlns:xlink="http://www.w3.org/1999/xlink">
    <title>Group 2 5</title>
    <g id="Page-1" stroke="none" stroke-width="1" fill="none" fill-rule="evenodd">
        <g id="Press-Kit" transform="translate(-766.000000, -523.000000)">
            <rect fill="#FFFFFF" x="0" y="0" width="1440" height="900"></rect>
            <g id="Group" transform="translate(767.000000, 524.000000)">
                <g id="streamlinehq-padlock-shield-users-128">
                    <path d="M8.03076923,0 L15.2542754,2.05209114 C15.7007588,2.17903746 16,2.52203139 16,2.90719431 L16,9.20741924 C16,13.5849007 8.03076923,16 8.03076923,16 C8.03076923,16 0.0615384615,13.5849007 0.0615384615,9.20741924 L0.0615384615,2.90719431 C0.0615384615,2.52200627 0.360718715,2.1789714 0.807263017,2.05209114 L8.03076923,0 Z" id="Path" fill="#1D3461" fill-rule="nonzero"></path>
                    <path d="M8,16 C8,16 0,13.5849007 0,9.20741924 L0,2.90719431 C0,2.52200627 0.30033539,2.1789714 0.748603801,2.05209114 L8,0 L8,16 Z" id="Path" fill="#00A7E1" fill-rule="nonzero"></path>
                    <path d="M8.03076923,0 L15.2542754,2.05209114 C15.7007588,2.17903746 16,2.52203139 16,2.90719431 L16,9.20741924 C16,13.5849007 8.03076923,16 8.03076923,16 C8.03076923,16 0.0615384615,13.5849007 0.0615384615,9.20741924 L0.0615384615,2.90719431 C0.0615384615,2.52200627 0.360718715,2.1789714 0.807263017,2.05209114 L8.03076923,0 Z" id="Path" stroke="#000000" stroke-linecap="round" stroke-linejoin="round"></path>
                    <path d="M2.64615385,7.725 C2.64615385,10.1412458 5.05692827,12.1 8.03076923,12.1 C11.0046102,12.1 13.4153846,10.1412458 13.4153846,7.725 C13.4153846,6.16196304 12.3890827,4.71765734 10.7230769,3.93613886 C9.05707113,3.15462038 7.00446734,3.15462038 5.33846154,3.93613886 C3.67245574,4.71765734 2.64615385,6.16196304 2.64615385,7.725 L2.64615385,7.725 Z" id="Path" fill="#F5F5F5" fill-rule="nonzero"></path>
                    <path d="M8.03076923,5.31778708 C10.5382242,5.31873048 12.7127556,6.72136366 13.2742842,8.7 C13.7788492,6.94895243 12.9038648,5.12672021 11.0709931,4.11145152 C9.23812139,3.09618283 6.82341708,3.09618283 4.99054536,4.11145152 C3.15767364,5.12672021 2.2826893,6.94895243 2.78725424,8.7 C3.34878288,6.72136366 5.52331427,5.31873048 8.03076923,5.31778708 L8.03076923,5.31778708 Z" id="Path" fill="#FFFFFF" fill-rule="nonzero"></path>
                    <path d="M2.64615385,7.725 C2.64615385,10.1412458 5.05692827,12.1 8.03076923,12.1 C11.0046102,12.1 13.4153846,10.1412458 13.4153846,7.725 C13.4153846,6.16196304 12.3890827,4.71765734 10.7230769,3.93613886 C9.05707113,3.15462038 7.00446734,3.15462038 5.33846154,3.93613886 C3.67245574,4.71765734 2.64615385,6.16196304 2.64615385,7.725 L2.64615385,7.725 Z" id="Path" stroke="#000000" stroke-linecap="round" stroke-linejoin="round"></path>
                </g>
                <g id="streamlinehq-patrol-ai-4-artificial-intelligence-128" transform="translate(4.694604, 5.110754)">
                    <path d="M0.142211388,2.56023274 C0.142211388,3.97421025 1.55386216,5.12046549 3.29522163,5.12046549 C5.03658111,5.12046549 6.44823188,3.97421025 6.44823188,2.56023274 C6.44823188,1.14625524 5.03658111,0 3.29522163,0 C1.55386216,0 0.142211388,1.14625524 0.142211388,2.56023274 Z" id="Path" stroke="#F5F5F5" stroke-width="1.28" fill="#F5F5F5" fill-rule="nonzero"></path>
                    <path d="M3.85235854,4.8456245 C3.78182513,4.84571922 3.71943734,4.80850268 3.69844427,4.75382533 C3.6774512,4.69914798 3.70274374,4.63974179 3.76084242,4.60726684 L3.76084242,4.01956541 L3.43947185,3.7587417 C3.42231008,3.74479903 3.41264582,3.72590557 3.41259244,3.70619292 L3.41259244,2.64984089 L3.17785083,2.64984089 L3.17785083,3.7059369 C3.17778415,3.72563484 3.16815407,3.74451684 3.15105024,3.75848568 L2.82960084,4.01956541 L2.82960084,4.60707482 C2.88769184,4.63960506 2.91297303,4.69903413 2.89199334,4.75374235 C2.87101366,4.80845057 2.80865052,4.84571922 2.73808472,4.84571922 C2.66751892,4.84571922 2.60515579,4.80845057 2.5841761,4.75374235 C2.56319642,4.69903413 2.5884776,4.63960506 2.6465686,4.60707482 L2.6465686,3.98890662 C2.64663528,3.96920868 2.65626536,3.95032668 2.67336919,3.93635785 L2.99481858,3.67547013 L2.99481858,2.64984089 L2.62071392,2.64984089 L2.62071392,3.7785195 C2.62063872,3.79821605 2.61100993,3.81709553 2.59391333,3.83106827 L2.27254276,4.09202 L2.27254276,4.42184198 C2.33058358,4.45436759 2.35582971,4.51376299 2.33485191,4.5684338 C2.31387411,4.62310461 2.25154789,4.66034461 2.18102664,4.66034461 C2.11050538,4.66034461 2.04817916,4.62310461 2.02720136,4.5684338 C2.00622356,4.51376299 2.0314697,4.45436759 2.08951051,4.42184198 L2.08951051,4.0612332 C2.08957719,4.04153526 2.09920727,4.02265325 2.1163111,4.00868442 L2.43768167,3.7477327 L2.43768167,2.64984089 L2.06365583,2.64984089 L2.06365583,3.47999636 C2.06370688,3.49972592 2.05402665,3.51865061 2.03677642,3.53254514 L1.71548467,3.79349686 L1.71548467,4.05105627 C1.77357567,4.08358651 1.79885686,4.14301559 1.77787717,4.19772381 C1.75689749,4.25243203 1.69453435,4.28970067 1.62396855,4.28970067 C1.55340275,4.28970067 1.49103962,4.25243203 1.47005993,4.19772381 C1.44908025,4.14301559 1.47436143,4.08358651 1.53245243,4.05105627 L1.53245243,3.76303009 C1.53235405,3.74330554 1.54200929,3.7243742 1.55925302,3.71048131 L1.88054476,3.44946558 L1.88054476,2.75474643 L1.13170483,3.3628017 C1.11450175,3.37668995 1.09124795,3.38450954 1.06698929,3.38456368 L0.642121162,3.38456368 C0.60205911,3.43173336 0.528870262,3.45226159 0.461495303,3.43522616 C0.394120343,3.41819073 0.348222792,3.3675521 0.348222792,3.31025293 C0.348222792,3.25295376 0.394120343,3.20231512 0.461495303,3.18527969 C0.528870262,3.16824427 0.60205911,3.18877249 0.642121162,3.23594217 L1.02891669,3.23594217 L1.75119252,2.64984089 L1.31363352,2.64984089 L0.922581423,2.96705373 C0.90541057,2.98098903 0.882142664,2.98883637 0.857865888,2.98887971 L0.29387118,2.98887971 C0.253796897,3.03603382 0.180613055,3.05654582 0.113249653,3.03950441 C0.0458862502,3.02246299 0,2.97182895 0,2.91453695 C0,2.85724496 0.0458862502,2.80661092 0.113249653,2.7895695 C0.180613055,2.77252808 0.253796897,2.79304009 0.29387118,2.8401942 L0.82010859,2.8401942 L1.14636633,2.57527411 L0.82010859,2.31061005 L0.29387118,2.31061005 C0.253802604,2.3577234 0.180660244,2.37820695 0.113342914,2.36116707 C0.0460255827,2.34412718 0.00017460869,2.29352312 0.00017460869,2.23626729 C0.00017460869,2.17901147 0.0460255827,2.12840741 0.113342914,2.11136752 C0.180660244,2.09432764 0.253802604,2.11481118 0.29387118,2.16192454 L0.857787063,2.16192454 C0.882045716,2.16197868 0.905299525,2.16979827 0.922502598,2.18368651 L1.31355469,2.50121938 L1.75103486,2.50121938 L1.02883787,1.91473406 L0.642121162,1.91473406 C0.60205911,1.96190374 0.528870262,1.98243197 0.461495303,1.96539654 C0.394120343,1.94836112 0.348222792,1.89772248 0.348222792,1.84042331 C0.348222792,1.78312414 0.394120343,1.7324855 0.461495303,1.71545007 C0.528870262,1.69841465 0.60205911,1.71894287 0.642121162,1.76611255 L1.06683164,1.76611255 C1.0910903,1.7661667 1.1143441,1.77398628 1.13154718,1.78787453 L1.88038711,2.39592981 L1.88038711,1.70133866 L1.55925302,1.44013092 C1.54215641,1.42615818 1.53252762,1.40727869 1.53245243,1.38758214 L1.53245243,1.09955596 C1.47441161,1.06703035 1.44916548,1.00763495 1.47014328,0.952964138 C1.49112108,0.898293326 1.5534473,0.861053326 1.62396855,0.861053326 C1.69448981,0.861053326 1.75681603,0.898293326 1.77779383,0.952964138 C1.79877163,1.00763495 1.77352549,1.06703035 1.71548467,1.09955596 L1.71548467,1.35692335 L2.03677642,1.61787508 C2.05404159,1.63176146 2.06372453,1.65069145 2.06365583,1.67042385 L2.06365583,2.50096336 L2.43768167,2.50096336 L2.43768167,1.58824038 L2.1163111,1.32722465 C2.09908979,1.31331955 2.08943862,1.29439619 2.08951051,1.27467588 L2.08951051,0.728706245 C2.03141951,0.696176006 2.00613833,0.63674693 2.02711802,0.58203871 C2.0480977,0.527330491 2.11046084,0.490061848 2.18102664,0.490061848 C2.25159244,0.490061848 2.31395557,0.527330491 2.33493526,0.58203871 C2.35591494,0.63674693 2.33063376,0.696176006 2.27254276,0.728706245 L2.27254276,1.24395308 L2.59367685,1.50490481 C2.61090562,1.51880585 2.62055814,1.53773186 2.62047744,1.55745358 L2.62047744,2.50096336 L2.99458211,2.50096336 L2.99458211,1.10435639 L2.67313271,0.843404672 C2.6559337,0.829487446 2.64628655,0.810571979 2.64633212,0.790855895 L2.64633212,0.357920538 C2.58824112,0.325390299 2.56295994,0.265961223 2.58393963,0.211253003 C2.60491931,0.156544783 2.66728245,0.11927614 2.73784825,0.11927614 C2.80841405,0.11927614 2.87077718,0.156544783 2.89175687,0.211253003 C2.91273655,0.265961223 2.88745537,0.325390299 2.82936437,0.357920538 L2.82936437,0.760069096 L3.15081376,1.02102082 C3.16801278,1.03493804 3.17765992,1.05385351 3.17761435,1.0735696 L3.17761435,2.50089935 L3.41235596,2.50089935 L3.41235596,1.0735696 C3.41230491,1.05384003 3.42198514,1.03491535 3.43923538,1.02102082 L3.76060594,0.760069096 L3.76060594,0.357920538 C3.70256513,0.325394929 3.67731899,0.26599953 3.69829679,0.211328718 C3.71927459,0.156657906 3.78160081,0.119417906 3.85212207,0.119417906 C3.92264332,0.119417906 3.98496954,0.156657906 4.00594734,0.211328718 C4.02692514,0.26599953 4.00167901,0.325394929 3.94363819,0.357920538 L3.94363819,0.790855895 C3.94368376,0.810571979 3.93403662,0.829487446 3.9168376,0.843404672 L3.59546703,1.10435639 L3.59546703,2.50096336 L3.96949287,2.50096336 L3.96949287,1.55745358 C3.9694473,1.5377375 3.97909445,1.51882203 3.99629346,1.50490481 L4.31766403,1.24395308 L4.31766403,0.728706245 C4.25959221,0.696166074 4.234331,0.636741063 4.25531806,0.582042228 C4.27630513,0.527343392 4.3386626,0.490083925 4.40921956,0.490083925 C4.47977653,0.490083925 4.542134,0.527343392 4.56312106,0.582042228 C4.58410813,0.636741063 4.55884692,0.696166074 4.5007751,0.728706245 L4.5007751,1.27467588 C4.50084699,1.29439619 4.49119582,1.31331955 4.47397451,1.32722465 L4.15252512,1.58824038 L4.15252512,2.50096336 L4.52655096,2.50096336 L4.52655096,1.67055187 C4.52648226,1.65081946 4.5361652,1.63188947 4.55343037,1.61800309 L4.87503742,1.35692335 L4.87503742,1.09949195 C4.81694641,1.06696171 4.79166523,1.00753264 4.81264492,0.952824418 C4.8336246,0.898116198 4.89598774,0.860847555 4.96655354,0.860847555 C5.03711934,0.860847555 5.09948247,0.898116198 5.12046216,0.952824418 C5.14144184,1.00753264 5.11616066,1.06696171 5.05806966,1.09949195 L5.05806966,1.38751814 C5.05802863,1.40722024 5.04839466,1.42610986 5.03126907,1.44006691 L4.7098985,1.70101864 L4.7098985,2.3958658 L5.45873844,1.78781053 C5.47594151,1.77392228 5.49919532,1.76610269 5.52345397,1.76604855 L5.94808563,1.76604855 C5.98814198,1.71891962 6.06128935,1.69841985 6.12861824,1.71545374 C6.19594713,1.73248764 6.24180941,1.7830963 6.24180941,1.8403593 C6.24180941,1.8976223 6.19594713,1.94823096 6.12861824,1.96526486 C6.06128935,1.98229876 5.98814198,1.96179899 5.94808563,1.91467006 L5.56152657,1.91467006 L4.83932957,2.50115537 L5.27680975,2.50115537 L5.66786184,2.18343049 C5.68500136,2.16946496 5.70829637,2.16163151 5.73257738,2.16166851 L6.29657208,2.16166851 C6.33664637,2.11451441 6.40983021,2.0940024 6.47719361,2.11104382 C6.54455701,2.12808523 6.59044326,2.17871928 6.59044326,2.23601127 C6.59044326,2.29330326 6.54455701,2.34393731 6.47719361,2.36097872 C6.40983021,2.37802014 6.33664637,2.35750814 6.29657208,2.31035403 L5.77033467,2.31035403 L5.44399811,2.57527411 L5.77033467,2.8401942 L6.29641443,2.8401942 C6.33648872,2.79304009 6.40967256,2.77252808 6.47703596,2.7895695 C6.54439936,2.80661092 6.59028561,2.85724496 6.59028561,2.91453695 C6.59028561,2.97182895 6.54439936,3.02246299 6.47703596,3.03950441 C6.40967256,3.05654582 6.33648872,3.03603382 6.29641443,2.98887971 L5.73257738,2.98887971 C5.70827977,2.98892116 5.68497341,2.98106085 5.66786184,2.96705373 L5.27680975,2.64984089 L4.83932957,2.64984089 L5.56152657,3.23632621 L5.9483221,3.23632621 C5.98837845,3.18919728 6.06152583,3.16869751 6.12885472,3.1857314 C6.19618361,3.2027653 6.24204588,3.25337396 6.24204588,3.31063696 C6.24204588,3.36789996 6.19618361,3.41850862 6.12885472,3.43554252 C6.06152583,3.45257642 5.98837845,3.43207665 5.9483221,3.38494772 L5.52369045,3.38494772 C5.49943179,3.38489358 5.47617799,3.37707399 5.45897491,3.36318574 L4.71013498,2.75513046 L4.71013498,3.44959359 L5.03150555,3.71060932 C5.04874928,3.72450222 5.05840451,3.74343355 5.05830614,3.7631581 L5.05830614,4.05118428 C5.11634695,4.08370989 5.14159309,4.14310529 5.12061529,4.1977761 C5.09963749,4.25244692 5.03731127,4.28968692 4.96679001,4.28968692 C4.89626876,4.28968692 4.83394254,4.25244692 4.81296474,4.1977761 C4.79198694,4.14310529 4.81723307,4.08370989 4.87527389,4.05118428 L4.87527389,3.79349686 L4.55390332,3.53254514 C4.53665309,3.51865061 4.52697286,3.49972592 4.52702391,3.47999636 L4.52702391,2.64984089 L4.15276159,2.64984089 L4.15276159,3.7477327 L4.47421099,4.00868442 C4.49131482,4.02265325 4.5009449,4.04153526 4.50101158,4.0612332 L4.50101158,4.42184198 C4.5590834,4.45438215 4.5843446,4.51380716 4.56335754,4.568506 C4.54237048,4.62320483 4.480013,4.6604643 4.40945604,4.6604643 C4.33889908,4.6604643 4.2765416,4.62320483 4.25555454,4.568506 C4.23456748,4.51380716 4.25982868,4.45438215 4.31790051,4.42184198 L4.31790051,4.09202 L3.99676641,3.83106827 C3.97966981,3.81709553 3.97004102,3.79821605 3.96996582,3.7785195 L3.96996582,2.64984089 L3.59570351,2.64984089 L3.59570351,3.67547013 L3.91707408,3.93635785 C3.93417791,3.95032668 3.94380799,3.96920868 3.94387466,3.98890662 L3.94387466,4.60720283 C4.00193466,4.63970568 4.02719681,4.69910166 4.00621255,4.75377073 C3.9852283,4.8084398 3.92287965,4.84566313 3.85235854,4.8456245 L3.85235854,4.8456245 Z" id="Path" stroke="#00B8F0" stroke-width="1.28" fill="#FFFFFF" fill-rule="nonzero" stroke-linecap="round" stroke-linejoin="round"></path>
                    <path d="M5.48821908,2.51222838 C5.51226279,2.54137029 5.51226279,2.57941523 5.48821908,2.60855714 C5.31401527,2.81894426 4.5485432,3.64737157 3.29522163,3.64737157 C2.04190006,3.64737157 1.276428,2.81894426 1.10222418,2.60855714 C1.07818048,2.57941523 1.07818048,2.54137029 1.10222418,2.51222838 C1.276428,2.30184126 2.04190006,1.47334994 3.29522163,1.47334994 C4.5485432,1.47334994 5.31401527,2.30184126 5.48821908,2.51222838 Z" id="Path" fill="#FFFFFF" fill-rule="nonzero"></path>
                    <path d="M5.49641691,2.52413346 C5.07706655,2.893063 4.32917252,3.37822711 3.29522163,3.37822711 C2.26127075,3.37822711 1.51377084,2.893063 1.09394753,2.52413346 L1.10183006,2.51222838 C1.07778635,2.54137029 1.07778635,2.57941523 1.10183006,2.60855714 C1.276428,2.81894426 2.04190006,3.64737157 3.29522163,3.64737157 C4.5485432,3.64737157 5.31401527,2.81894426 5.48821908,2.60855714 C5.51226279,2.57941523 5.51226279,2.54137029 5.48821908,2.51222838" id="Path" fill="#C7F0FF" fill-rule="nonzero"></path>
                    <polyline id="Path" stroke="#4ACFFF" stroke-width="1.28" stroke-linecap="round" stroke-linejoin="round" points="2.15706376 1.71855623 2.20041765 2.04063351 2.37525207 2.04063351 2.89139985 2.49942722"></polyline>
                    <polyline id="Path" stroke="#4ACFFF" stroke-width="1.28" stroke-linecap="round" stroke-linejoin="round" points="4.43330068 1.71855623 4.39002561 2.04063351 4.2151912 2.04063351 3.69896459 2.49942722"></polyline>
                    <polyline id="Path" stroke="#4ACFFF" stroke-width="1.28" stroke-linecap="round" stroke-linejoin="round" points="2.15706376 3.40216528 2.20041765 3.08015201 2.37525207 3.08015201 2.89139985 2.6213583"></polyline>
                    <polyline id="Path" stroke="#4ACFFF" stroke-width="1.28" stroke-linecap="round" stroke-linejoin="round" points="4.43330068 3.40216528 4.39002561 3.08015201 4.2151912 3.08015201 3.69904342 2.6213583"></polyline>
                    <path d="M2.33899245,2.56036076 C2.33899245,2.98918478 2.76711084,3.33681534 3.29522163,3.33681534 C3.82333243,3.33681534 4.25145081,2.98918478 4.25145081,2.56036076 C4.25145081,2.13153673 3.82333243,1.78390617 3.29522163,1.78390617 C2.76711084,1.78390617 2.33899245,2.13153673 2.33899245,2.56036076 Z" id="Path" fill="#FF6242" fill-rule="nonzero"></path>
                    <path d="M5.48821908,2.51222838 C5.51226279,2.54137029 5.51226279,2.57941523 5.48821908,2.60855714 C5.31401527,2.81894426 4.5485432,3.64737157 3.29522163,3.64737157 C2.04190006,3.64737157 1.276428,2.81894426 1.10222418,2.60855714 C1.07818048,2.57941523 1.07818048,2.54137029 1.10222418,2.51222838 C1.276428,2.30184126 2.04190006,1.47334994 3.29522163,1.47334994 C4.5485432,1.47334994 5.31401527,2.30184126 5.48821908,2.51222838 Z" id="Path" stroke="#00658A" stroke-width="1.28" stroke-linecap="round" stroke-linejoin="round"></path>
                    <path d="M2.33899245,2.56036076 C2.33899245,2.98918478 2.76711084,3.33681534 3.29522163,3.33681534 C3.82333243,3.33681534 4.25145081,2.98918478 4.25145081,2.56036076 C4.25145081,2.13153673 3.82333243,1.78390617 3.29522163,1.78390617 C2.76711084,1.78390617 2.33899245,2.13153673 2.33899245,2.56036076 Z" id="Path" stroke="#000000" stroke-width="1.28" stroke-linecap="round" stroke-linejoin="round"></path>
                    <path d="M2.60739245,2.56036076 C2.60739245,2.86881995 2.91534406,3.11887553 3.29522163,3.11887553 C3.6750992,3.11887553 3.98305082,2.86881995 3.98305082,2.56036076 C3.98305082,2.25190156 3.6750992,2.00184598 3.29522163,2.00184598 C2.91534406,2.00184598 2.60739245,2.25190156 2.60739245,2.56036076 L2.60739245,2.56036076 Z" id="Path" fill="#FFA694" fill-rule="nonzero"></path>
                    <path d="M2.88454205,2.56036076 C2.88454205,2.74453133 3.06840956,2.89383107 3.29522163,2.89383107 C3.5220337,2.89383107 3.70590122,2.74453133 3.70590122,2.56036076 C3.70590122,2.37619019 3.5220337,2.22689044 3.29522163,2.22689044 C3.06840956,2.22689044 2.88454205,2.37619019 2.88454205,2.56036076 Z" id="Path" stroke="#FF6242" stroke-width="1.28" fill="#FFFFFF" fill-rule="nonzero" stroke-linecap="round" stroke-linejoin="round"></path>
                </g>
            </g>
        </g>
    </g>
</svg>