<?xml version="1.0" encoding="UTF-8"?>
<svg width="257px" height="317px" viewBox="0 0 257 317" version="1.1" xmlns="http://www.w3.org/2000/svg" xmlns:xlink="http://www.w3.org/1999/xlink">
    <title>Group 2</title>
    <g id="Page-1" stroke="none" stroke-width="1" fill="none" fill-rule="evenodd">
        <g id="Press-Kit" transform="translate(-67.000000, -223.000000)">
            <rect fill="#FFFFFF" x="0" y="0" width="1440" height="900"></rect>
            <g id="Group" transform="translate(67.000000, 224.000000)">
                <g id="streamlinehq-padlock-shield-users-128">
                    <path d="M128.492308,0 L244.068407,40.4104102 C251.212141,42.9102762 256,49.6646182 256,57.249365 L256,181.315333 C256,267.518045 128.492308,315.076923 128.492308,315.076923 C128.492308,315.076923 0.984615385,267.518045 0.984615385,181.315333 L0.984615385,57.249365 C0.984615385,49.6641235 5.77149944,42.9089752 12.9162083,40.4104102 L128.492308,0 Z" id="Path" fill="#1D3461" fill-rule="nonzero"></path>
                    <path d="M128,315.076923 C128,315.076923 0,267.518045 0,181.315333 L0,57.249365 C0,49.6641235 4.80536623,42.9089752 11.9776608,40.4104102 L128,0 L128,315.076923 Z" id="Path" fill="#00A7E1" fill-rule="nonzero"></path>
                    <path d="M128.492308,0 L244.068407,40.4104102 C251.212141,42.9102762 256,49.6646182 256,57.249365 L256,181.315333 C256,267.518045 128.492308,315.076923 128.492308,315.076923 C128.492308,315.076923 0.984615385,267.518045 0.984615385,181.315333 L0.984615385,57.249365 C0.984615385,49.6641235 5.77149944,42.9089752 12.9162083,40.4104102 L128.492308,0 Z" id="Path" stroke="#000000" stroke-width="1.28" stroke-linecap="round" stroke-linejoin="round"></path>
                    <path d="M42.3384615,152.123077 C42.3384615,199.704532 80.9108523,238.276923 128.492308,238.276923 C176.073763,238.276923 214.646154,199.704532 214.646154,152.123077 C214.646154,121.343272 198.225324,92.9015599 171.569231,77.5116575 C144.913138,62.1217552 112.071477,62.1217552 85.4153846,77.5116575 C58.7592918,92.9015599 42.3384615,121.343272 42.3384615,152.123077 L42.3384615,152.123077 Z" id="Path" fill="#F5F5F5" fill-rule="nonzero"></path>
                    <path d="M128.492308,104.719499 C168.611587,104.738077 203.404089,132.359161 212.388548,171.323077 C220.461587,136.840909 206.461837,100.956952 177.13589,80.9639684 C147.809942,60.9709849 109.174673,60.9709849 79.8487257,80.9639684 C50.5227782,100.956952 36.5230288,136.840909 44.5960678,171.323077 C53.5805262,132.359161 88.3730284,104.738077 128.492308,104.719499 L128.492308,104.719499 Z" id="Path" fill="#FFFFFF" fill-rule="nonzero"></path>
                    <path d="M42.3384615,152.123077 C42.3384615,199.704532 80.9108523,238.276923 128.492308,238.276923 C176.073763,238.276923 214.646154,199.704532 214.646154,152.123077 C214.646154,121.343272 198.225324,92.9015599 171.569231,77.5116575 C144.913138,62.1217552 112.071477,62.1217552 85.4153846,77.5116575 C58.7592918,92.9015599 42.3384615,121.343272 42.3384615,152.123077 L42.3384615,152.123077 Z" id="Path" stroke="#000000" stroke-width="1.28" stroke-linecap="round" stroke-linejoin="round"></path>
                </g>
                <g id="streamlinehq-patrol-ai-4-artificial-intelligence-128" transform="translate(75.113668, 100.642548)">
                    <path d="M2.2753822,50.416891 C2.2753822,78.261371 24.8617945,100.833782 52.7235461,100.833782 C80.5852977,100.833782 103.17171,78.261371 103.17171,50.416891 C103.17171,22.572411 80.5852977,0 52.7235461,0 C24.8617945,0 2.2753822,22.572411 2.2753822,50.416891 Z" id="Path" stroke="#F5F5F5" stroke-width="1.28" fill="#F5F5F5" fill-rule="nonzero"></path>
                    <path d="M61.6377367,95.4215287 C60.5092022,95.4233938 59.5109975,94.6905144 59.1751084,93.6137911 C58.8392192,92.5370679 59.2438999,91.3672228 60.1734787,90.7277162 L60.1734787,79.1545188 L55.0315496,74.0182981 C54.7569612,73.7437347 54.6023331,73.371679 54.601479,72.9834914 L54.601479,52.1814822 L50.8456132,52.1814822 L50.8456132,72.9784497 C50.8445464,73.3663475 50.6904651,73.7381778 50.4168038,74.0132564 L45.2736135,79.1545188 L45.2736135,90.7239349 C46.2030695,91.3645304 46.6075684,92.534826 46.2718935,93.6121571 C45.9362185,94.6894882 44.9384084,95.4233938 43.8093556,95.4233938 C42.6803027,95.4233938 41.6824926,94.6894882 41.3468176,93.6121571 C41.0111427,92.534826 41.4156416,91.3645304 42.3450976,90.7239349 L42.3450976,78.5507766 C42.3461644,78.1628787 42.5002457,77.7910484 42.773907,77.5159699 L47.9170973,72.3784887 L47.9170973,52.1814822 L41.9314227,52.1814822 L41.9314227,74.4077685 C41.9302196,74.7956391 41.7761589,75.1674197 41.5026133,75.4425752 L36.3606842,80.5813168 L36.3606842,87.0762728 C37.2893372,87.7167771 37.6932754,88.8864096 37.3576306,89.963004 C37.0219858,91.0395985 36.0247663,91.77294 34.8964262,91.77294 C33.7680861,91.77294 32.7708666,91.0395985 32.4352218,89.963004 C32.099577,88.8864096 32.5035152,87.7167771 33.4321682,87.0762728 L33.4321682,79.9750537 C33.4332351,79.5871559 33.5873164,79.2153256 33.8609776,78.940247 L39.0029067,73.8015054 L39.0029067,52.1814822 L33.0184933,52.1814822 L33.0184933,68.5291591 C33.0193101,68.9176797 32.8644264,69.2903504 32.5884227,69.5639657 L27.4477548,74.7027074 L27.4477548,79.7746466 C28.3772108,80.4152421 28.7817097,81.5855377 28.4460347,82.6628688 C28.1103598,83.7401999 27.1125497,84.4741055 25.9834968,84.4741055 C24.854444,84.4741055 23.8566339,83.7401999 23.5209589,82.6628688 C23.185284,81.5855377 23.5897829,80.4152421 24.5192389,79.7746466 L24.5192389,74.1027464 C24.5176648,73.7143245 24.6721486,73.3415228 24.9480483,73.0679397 L30.0887162,67.9279376 L30.0887162,54.2473143 L18.1072772,66.2213259 C17.8320281,66.4948175 17.4599671,66.6488033 17.0718287,66.6498694 L10.2739386,66.6498694 C9.63294577,67.5787493 8.46192419,67.9829974 7.38392484,67.6475306 C6.30592549,67.3120637 5.57156468,66.3148721 5.57156468,65.1865192 C5.57156468,64.0581663 6.30592549,63.0609747 7.38392484,62.7255078 C8.46192419,62.3900409 9.63294577,62.7942891 10.2739386,63.7231689 L16.4626671,63.7231689 L28.0190802,52.1814822 L21.0181363,52.1814822 L14.7613028,58.4281349 C14.4865691,58.7025531 14.1142826,58.8570854 13.7258542,58.8579389 L4.70193889,58.8579389 C4.06075035,59.7865121 2.88980889,60.1904408 1.81199445,59.854856 C0.734180004,59.5192712 0,58.52217 0,57.3939585 C0,56.2657469 0.734180004,55.2686458 1.81199445,54.9330609 C2.88980889,54.5974761 4.06075035,55.0014048 4.70193889,55.929978 L13.1217374,55.929978 L18.3418612,50.7130902 L13.1217374,45.5012441 L4.70193889,45.5012441 C4.06084167,46.4290147 2.89056391,46.8323831 1.81348662,46.4968284 C0.736409324,46.1612737 0.00279373904,45.1647629 0.00279373904,44.0372636 C0.00279373904,42.9097644 0.736409324,41.9132536 1.81348662,41.5776989 C2.89056391,41.2421442 4.06084167,41.6455125 4.70193889,42.5732832 L13.724593,42.5732832 C14.1127315,42.5743494 14.4847924,42.7283351 14.7600416,43.0018267 L21.0168751,49.2547816 L28.0165578,49.2547816 L16.4614059,37.7055323 L10.2739386,37.7055323 C9.63294577,38.6344122 8.46192419,39.0386603 7.38392484,38.7031935 C6.30592549,38.3677266 5.57156468,37.370535 5.57156468,36.2421821 C5.57156468,35.1138292 6.30592549,34.1166376 7.38392484,33.7811707 C8.46192419,33.4457038 9.63294577,33.849952 10.2739386,34.7788318 L17.0693063,34.7788318 C17.4574447,34.779898 17.8295057,34.9338838 18.1047548,35.2073754 L30.0861938,47.181387 L30.0861938,33.5032845 L24.9480483,28.3595012 C24.6745026,28.0843457 24.520442,27.712565 24.5192389,27.3246945 L24.5192389,21.6527943 C23.5905858,21.0122899 23.1866476,19.8426575 23.5222924,18.766063 C23.8579373,17.6894686 24.8551567,16.956127 25.9834968,16.956127 C27.1118369,16.956127 28.1090564,17.6894686 28.4447012,18.766063 C28.780346,19.8426575 28.3764079,21.0122899 27.4477548,21.6527943 L27.4477548,26.7209522 L32.5884227,31.8596938 C32.8646654,32.1331487 33.0195925,32.5059239 33.0184933,32.8945005 L33.0184933,49.2497399 L39.0029067,49.2497399 L39.0029067,31.2761183 L33.8609776,26.1361163 C33.5854367,25.8622928 33.4310179,25.489648 33.4321682,25.1013096 L33.4321682,14.3499076 C32.5027122,13.7093121 32.0982133,12.5390165 32.4338883,11.4616854 C32.7695632,10.3843543 33.7673734,9.65044869 34.8964262,9.65044869 C36.025479,9.65044869 37.0232892,10.3843543 37.3589641,11.4616854 C37.6946391,12.5390165 37.2901402,13.7093121 36.3606842,14.3499076 L36.3606842,24.4963069 L41.4988296,29.6350485 C41.7744899,29.9087921 41.9289303,30.281489 41.927639,30.6698552 L41.927639,49.2497399 L47.9133137,49.2497399 L47.9133137,21.7473259 L42.7701234,16.6085843 C42.4949392,16.334522 42.3405849,15.9620328 42.341314,15.5737776 L42.341314,7.04828136 C41.411858,6.40768589 41.0073591,5.23739023 41.343034,4.16005914 C41.678709,3.08272804 42.6765191,2.34882246 43.8055719,2.34882246 C44.9346248,2.34882246 45.9324349,3.08272804 46.2681098,4.16005914 C46.6037848,5.23739023 46.1992859,6.40768589 45.2698299,7.04828136 L45.2698299,14.9675145 L50.4130202,20.1062561 C50.6882044,20.3803184 50.8425587,20.7528076 50.8418296,21.1410628 L50.8418296,49.2484795 L54.5976954,49.2484795 L54.5976954,21.1410628 C54.5968786,20.7525421 54.7517623,20.3798715 55.027766,20.1062561 L60.1696951,14.9675145 L60.1696951,7.04828136 C59.241042,6.40777706 58.8371039,5.23814459 59.1727487,4.16155013 C59.5083935,3.08495568 60.505613,2.35161415 61.6339531,2.35161415 C62.7622932,2.35161415 63.7595126,3.08495568 64.0951575,4.16155013 C64.4308023,5.23814459 64.0268641,6.40777706 63.098211,7.04828136 L63.098211,15.5737776 C63.0989401,15.9620328 62.9445858,16.334522 62.6694016,16.6085843 L57.5274725,21.7473259 L57.5274725,49.2497399 L63.511886,49.2497399 L63.511886,30.6698552 C63.5111569,30.2816 63.6655112,29.9091108 63.9406954,29.6350485 L69.0826245,24.4963069 L69.0826245,14.3499076 C68.1534753,13.7091165 67.7492961,12.5389009 68.085089,11.4617546 C68.420882,10.3846083 69.4186017,9.65088345 70.547513,9.65088345 C71.6764244,9.65088345 72.6741441,10.3846083 73.009937,11.4617546 C73.34573,12.5389009 72.9415507,13.7091165 72.0124016,14.3499076 L72.0124016,25.1013096 C72.0135519,25.489648 71.8591331,25.8622928 71.5835922,26.1361163 L66.4404019,31.2761183 L66.4404019,49.2497399 L72.4248153,49.2497399 L72.4248153,32.8970214 C72.4237161,32.5084448 72.5786433,32.1356695 72.8548859,31.8622147 L78.0005986,26.7209522 L78.0005986,21.6515338 C77.0711426,21.0109384 76.6666437,19.8406427 77.0023187,18.7633116 C77.3379936,17.6859805 78.3358038,16.9520749 79.4648566,16.9520749 C80.5939094,16.9520749 81.5917196,17.6859805 81.9273945,18.7633116 C82.2630695,19.8406427 81.8585706,21.0109384 80.9291146,21.6515338 L80.9291146,27.3234341 C80.928458,27.7114139 80.7743146,28.0833941 80.5003052,28.3582408 L75.3583761,33.4969824 L75.3583761,47.1801266 L87.339815,35.206115 C87.6150642,34.9326233 87.9871251,34.7786376 88.3752636,34.7775714 L95.16937,34.7775714 C95.8102716,33.849494 96.9806296,33.4458062 98.0578919,33.781243 C99.1351541,34.1166797 99.8689505,35.113281 99.8689505,36.2409217 C99.8689505,37.3685623 99.1351541,38.3651636 98.0578919,38.7006003 C96.9806296,39.0360371 95.8102716,38.6323493 95.16937,37.7042719 L88.9844251,37.7042719 L77.4292732,49.2535212 L84.4289559,49.2535212 L90.6857895,42.996785 C90.9600218,42.7217714 91.332742,42.5675128 91.721238,42.5682415 L100.745153,42.5682415 C101.386342,41.6396683 102.557283,41.2357396 103.635098,41.5713244 C104.712912,41.9069092 105.447092,42.9040104 105.447092,44.0322219 C105.447092,45.1604335 104.712912,46.1575347 103.635098,46.4931195 C102.557283,46.8287043 101.386342,46.4247756 100.745153,45.4962024 L92.3253548,45.4962024 L87.1039698,50.7130902 L92.3253548,55.929978 L100.742631,55.929978 C101.383819,55.0014048 102.554761,54.5974761 103.632575,54.9330609 C104.71039,55.2686458 105.44457,56.2657469 105.44457,57.3939585 C105.44457,58.52217 104.71039,59.5192712 103.632575,59.854856 C102.554761,60.1904408 101.383819,59.7865121 100.742631,58.8579389 L91.721238,58.8579389 C91.3324764,58.8587552 90.9595745,58.7039675 90.6857895,58.4281349 L84.4289559,52.1814822 L77.4292732,52.1814822 L88.9844251,63.7307315 L95.1731536,63.7307315 C95.8140552,62.8026541 96.9844132,62.3989663 98.0616755,62.734403 C99.1389377,63.0698398 99.8727341,64.0664411 99.8727341,65.1940817 C99.8727341,66.3217224 99.1389377,67.3183237 98.0616755,67.6537604 C96.9844132,67.9891971 95.8140552,67.5855094 95.1731536,66.657432 L88.3790472,66.657432 C87.9909087,66.6563658 87.6188478,66.50238 87.3435986,66.2288884 L75.3621597,54.2548768 L75.3621597,67.9304585 L80.5040888,73.0704605 C80.7799884,73.3440436 80.9344722,73.7168454 80.9328982,74.1052672 L80.9328982,79.7771674 C81.8615513,80.4176717 82.2654894,81.5873042 81.9298446,82.6638987 C81.5941998,83.7404931 80.5969803,84.4738346 79.4686402,84.4738346 C78.3403001,84.4738346 77.3430806,83.7404931 77.0074358,82.6638987 C76.671791,81.5873042 77.0757292,80.4176717 78.0043823,79.7771674 L78.0043823,74.7027074 L72.8624532,69.5639657 C72.5864495,69.2903504 72.4315658,68.9176797 72.4323826,68.5291591 L72.4323826,52.1814822 L66.4441855,52.1814822 L66.4441855,73.8015054 L71.5873758,78.940247 C71.8610371,79.2153256 72.0151183,79.5871559 72.0161852,79.9750537 L72.0161852,87.0762728 C72.9453344,87.7170639 73.3495136,88.8872795 73.0137206,89.9644258 C72.6779277,91.0415721 71.680208,91.775297 70.5512966,91.775297 C69.4223853,91.775297 68.4246656,91.0415721 68.0888726,89.9644258 C67.7530797,88.8872795 68.1572589,87.7170639 69.0864081,87.0762728 L69.0864081,80.5813168 L63.9482626,75.4425752 C63.674717,75.1674197 63.5206563,74.7956391 63.5194532,74.4077685 L63.5194532,52.1814822 L57.5312561,52.1814822 L57.5312561,72.3784887 L62.6731852,77.5159699 C62.9468465,77.7910484 63.1009278,78.1628787 63.1019946,78.5507766 L63.1019946,90.7264557 C64.0309546,91.3665118 64.4351489,92.5361557 64.0994008,93.6127159 C63.7636528,94.689276 62.7660745,95.4222892 61.6377367,95.4215287 L61.6377367,95.4215287 Z" id="Path" stroke="#00B8F0" stroke-width="1.28" fill="#FFFFFF" fill-rule="nonzero" stroke-linecap="round" stroke-linejoin="round"></path>
                    <path d="M87.8115053,49.4715743 C88.1962046,50.0454458 88.1962046,50.7946383 87.8115053,51.3685098 C85.0242443,55.5115178 72.7766913,71.8251633 52.7235461,71.8251633 C32.670401,71.8251633 20.422848,55.5115178 17.6355869,51.3685098 C17.2508876,50.7946383 17.2508876,50.0454458 17.6355869,49.4715743 C20.422848,45.3285663 32.670401,29.0136603 52.7235461,29.0136603 C72.7766913,29.0136603 85.0242443,45.3285663 87.8115053,49.4715743 Z" id="Path" fill="#FFFFFF" fill-rule="nonzero"></path>
                    <path d="M87.9426706,49.7060128 C81.2330647,56.9710868 69.2667603,66.5250876 52.7235461,66.5250876 C36.180332,66.5250876 24.2203335,56.9710868 17.5031605,49.7060128 L17.6292809,49.4715743 C17.2445816,50.0454458 17.2445816,50.7946383 17.6292809,51.3685098 C20.422848,55.5115178 32.670401,71.8251633 52.7235461,71.8251633 C72.7766913,71.8251633 85.0242443,55.5115178 87.8115053,51.3685098 C88.1962046,50.7946383 88.1962046,50.0454458 87.8115053,49.4715743" id="Path" fill="#C7F0FF" fill-rule="nonzero"></path>
                    <polyline id="Path" stroke="#4ACFFF" stroke-width="1.28" stroke-linecap="round" stroke-linejoin="round" points="34.5130201 33.8423381 35.2066824 40.184783 38.0040331 40.184783 46.2623975 49.2194898"></polyline>
                    <polyline id="Path" stroke="#4ACFFF" stroke-width="1.28" stroke-linecap="round" stroke-linejoin="round" points="70.9328109 33.8423381 70.2404098 40.184783 67.4430591 40.184783 59.1834335 49.2194898"></polyline>
                    <polyline id="Path" stroke="#4ACFFF" stroke-width="1.28" stroke-linecap="round" stroke-linejoin="round" points="34.5130201 66.9964856 35.2066824 60.6553011 38.0040331 60.6553011 46.2623975 51.6205942"></polyline>
                    <polyline id="Path" stroke="#4ACFFF" stroke-width="1.28" stroke-linecap="round" stroke-linejoin="round" points="70.9328109 66.9964856 70.2404098 60.6553011 67.4430591 60.6553011 59.1846947 51.6205942"></polyline>
                    <path d="M37.4238792,50.4194118 C37.4238792,58.8639465 44.2737734,65.7095944 52.7235461,65.7095944 C61.1733188,65.7095944 68.023213,58.8639465 68.023213,50.4194118 C68.023213,41.9748771 61.1733188,35.1292292 52.7235461,35.1292292 C44.2737734,35.1292292 37.4238792,41.9748771 37.4238792,50.4194118 Z" id="Path" fill="#FF6242" fill-rule="nonzero"></path>
                    <path d="M87.8115053,49.4715743 C88.1962046,50.0454458 88.1962046,50.7946383 87.8115053,51.3685098 C85.0242443,55.5115178 72.7766913,71.8251633 52.7235461,71.8251633 C32.670401,71.8251633 20.422848,55.5115178 17.6355869,51.3685098 C17.2508876,50.7946383 17.2508876,50.0454458 17.6355869,49.4715743 C20.422848,45.3285663 32.670401,29.0136603 52.7235461,29.0136603 C72.7766913,29.0136603 85.0242443,45.3285663 87.8115053,49.4715743 Z" id="Path" stroke="#00658A" stroke-width="1.28" stroke-linecap="round" stroke-linejoin="round"></path>
                    <path d="M37.4238792,50.4194118 C37.4238792,58.8639465 44.2737734,65.7095944 52.7235461,65.7095944 C61.1733188,65.7095944 68.023213,58.8639465 68.023213,50.4194118 C68.023213,41.9748771 61.1733188,35.1292292 52.7235461,35.1292292 C44.2737734,35.1292292 37.4238792,41.9748771 37.4238792,50.4194118 Z" id="Path" stroke="#000000" stroke-width="1.28" stroke-linecap="round" stroke-linejoin="round"></path>
                    <path d="M41.7182792,50.4194118 C41.7182792,56.4936851 46.645505,61.4178566 52.7235461,61.4178566 C58.8015872,61.4178566 63.7288131,56.4936851 63.7288131,50.4194118 C63.7288131,44.3451385 58.8015872,39.4209671 52.7235461,39.4209671 C46.645505,39.4209671 41.7182792,44.3451385 41.7182792,50.4194118 L41.7182792,50.4194118 Z" id="Path" fill="#FFA694" fill-rule="nonzero"></path>
                    <path d="M46.1526728,50.4194118 C46.1526728,54.0461553 49.094553,56.9862119 52.7235461,56.9862119 C56.3525393,56.9862119 59.2944195,54.0461553 59.2944195,50.4194118 C59.2944195,46.7926683 56.3525393,43.8526118 52.7235461,43.8526118 C49.094553,43.8526118 46.1526728,46.7926683 46.1526728,50.4194118 Z" id="Path" stroke="#FF6242" stroke-width="1.28" fill="#FFFFFF" fill-rule="nonzero" stroke-linecap="round" stroke-linejoin="round"></path>
                </g>
            </g>
        </g>
    </g>
</svg>