<?xml version="1.0" encoding="UTF-8"?>
<svg width="34px" height="42px" viewBox="0 0 34 42" version="1.1" xmlns="http://www.w3.org/2000/svg" xmlns:xlink="http://www.w3.org/1999/xlink">
    <title>Group 2 4</title>
    <g id="Page-1" stroke="none" stroke-width="1" fill="none" fill-rule="evenodd">
        <g id="Press-Kit" transform="translate(-679.000000, -499.000000)">
            <rect fill="#FFFFFF" x="0" y="0" width="1440" height="900"></rect>
            <g id="Group" transform="translate(680.000000, 500.000000)">
                <g id="streamlinehq-padlock-shield-users-128">
                    <path d="M16.0615385,0 L30.5085509,5.05130128 C31.4015176,5.36378452 32,6.20807728 32,7.15617062 L32,22.6644166 C32,33.4397557 16.0615385,39.3846154 16.0615385,39.3846154 C16.0615385,39.3846154 0.123076923,33.4397557 0.123076923,22.6644166 L0.123076923,7.15617062 C0.123076923,6.20801544 0.72143743,5.3636219 1.61452603,5.05130128 L16.0615385,0 Z" id="Path" fill="#1D3461" fill-rule="nonzero"></path>
                    <path d="M16,39.3846154 C16,39.3846154 0,33.4397557 0,22.6644166 L0,7.15617062 C0,6.20801544 0.600670779,5.3636219 1.4972076,5.05130128 L16,0 L16,39.3846154 Z" id="Path" fill="#00A7E1" fill-rule="nonzero"></path>
                    <path d="M16.0615385,0 L30.5085509,5.05130128 C31.4015176,5.36378452 32,6.20807728 32,7.15617062 L32,22.6644166 C32,33.4397557 16.0615385,39.3846154 16.0615385,39.3846154 C16.0615385,39.3846154 0.123076923,33.4397557 0.123076923,22.6644166 L0.123076923,7.15617062 C0.123076923,6.20801544 0.72143743,5.3636219 1.61452603,5.05130128 L16.0615385,0 Z" id="Path" stroke="#000000" stroke-width="1.28" stroke-linecap="round" stroke-linejoin="round"></path>
                    <path d="M5.29230769,19.0153846 C5.29230769,24.9630665 10.1138565,29.7846154 16.0615385,29.7846154 C22.0092204,29.7846154 26.8307692,24.9630665 26.8307692,19.0153846 C26.8307692,15.167909 24.7781654,11.612695 21.4461538,9.68895719 C18.1141423,7.7652194 14.0089347,7.7652194 10.6769231,9.68895719 C7.34491148,11.612695 5.29230769,15.167909 5.29230769,19.0153846 L5.29230769,19.0153846 Z" id="Path" fill="#F5F5F5" fill-rule="nonzero"></path>
                    <path d="M16.0615385,13.0899374 C21.0764484,13.0922596 25.4255112,16.5448952 26.5485684,21.4153846 C27.5576983,17.1051137 25.8077296,12.619619 22.1419862,10.1204961 C18.4762428,7.62137311 13.6468342,7.62137311 9.98109072,10.1204961 C6.31534728,12.619619 4.5653786,17.1051137 5.57450848,21.4153846 C6.69756577,16.5448952 11.0466285,13.0922596 16.0615385,13.0899374 L16.0615385,13.0899374 Z" id="Path" fill="#FFFFFF" fill-rule="nonzero"></path>
                    <path d="M5.29230769,19.0153846 C5.29230769,24.9630665 10.1138565,29.7846154 16.0615385,29.7846154 C22.0092204,29.7846154 26.8307692,24.9630665 26.8307692,19.0153846 C26.8307692,15.167909 24.7781654,11.612695 21.4461538,9.68895719 C18.1141423,7.7652194 14.0089347,7.7652194 10.6769231,9.68895719 C7.34491148,11.612695 5.29230769,15.167909 5.29230769,19.0153846 L5.29230769,19.0153846 Z" id="Path" stroke="#000000" stroke-width="1.28" stroke-linecap="round" stroke-linejoin="round"></path>
                </g>
                <g id="streamlinehq-patrol-ai-4-artificial-intelligence-128" transform="translate(9.389209, 12.580319)">
                    <path d="M0.284422775,6.30211137 C0.284422775,9.78267137 3.10772432,12.6042227 6.59044326,12.6042227 C10.0731622,12.6042227 12.8964638,9.78267137 12.8964638,6.30211137 C12.8964638,2.82155137 10.0731622,0 6.59044326,0 C3.10772432,0 0.284422775,2.82155137 0.284422775,6.30211137 Z" id="Path" stroke="#F5F5F5" stroke-width="1.28" fill="#F5F5F5" fill-rule="nonzero"></path>
                    <path d="M7.70471709,11.9276911 C7.56365027,11.9279242 7.43887469,11.8363143 7.39688855,11.7017239 C7.35490241,11.5671335 7.40548748,11.4209029 7.52168484,11.3409645 L7.52168484,9.89431485 L6.8789437,9.25228726 C6.84462015,9.21796684 6.82529164,9.17145988 6.82518488,9.12293642 L6.82518488,6.52268527 L6.35570165,6.52268527 L6.35570165,9.12230621 C6.3555683,9.17079344 6.33630814,9.21727223 6.30210048,9.25165705 L5.65920169,9.89431485 L5.65920169,11.3404919 C5.77538369,11.4205663 5.82594605,11.5668533 5.78398668,11.7015196 C5.74202731,11.836186 5.61730105,11.9279242 5.47616944,11.9279242 C5.33503784,11.9279242 5.21031157,11.836186 5.16835221,11.7015196 C5.12639284,11.5668533 5.1769552,11.4205663 5.2931372,11.3404919 L5.2931372,9.81884707 C5.29327056,9.77035984 5.31253071,9.72388105 5.34673837,9.68949623 L5.98963716,9.04731109 L5.98963716,6.52268527 L5.24142783,6.52268527 L5.24142783,9.30097107 C5.24127745,9.34945489 5.22201986,9.39592747 5.18782666,9.4303219 L4.54508552,10.0726646 L4.54508552,10.8845341 C4.66116715,10.9645971 4.71165942,11.1108012 4.66970382,11.2453755 C4.62774822,11.3799498 4.50309579,11.4716175 4.36205327,11.4716175 C4.22101076,11.4716175 4.09635833,11.3799498 4.05440273,11.2453755 C4.01244712,11.1108012 4.06293939,10.9645971 4.17902103,10.8845341 L4.17902103,9.99688172 C4.17915439,9.94839449 4.19841454,9.9019157 4.2326222,9.86753088 L4.87536334,9.22518818 L4.87536334,6.52268527 L4.12731166,6.52268527 L4.12731166,8.56614488 C4.12741376,8.61470997 4.1080533,8.6612938 4.07355284,8.69549572 L3.43096935,9.33783842 L3.43096935,9.97183082 C3.54715135,10.0519053 3.59771371,10.1981922 3.55575434,10.3328586 C3.51379497,10.467525 3.38906871,10.5592632 3.2479371,10.5592632 C3.1068055,10.5592632 2.98207923,10.467525 2.94011987,10.3328586 C2.8981605,10.1981922 2.94872286,10.0519053 3.06490486,9.97183082 L3.06490486,9.26284329 C3.0647081,9.21429056 3.08401858,9.16769035 3.11850603,9.13349246 L3.76108952,8.4909922 L3.76108952,6.78091428 L2.26340966,8.27766573 C2.22900351,8.31185219 2.18249589,8.33110041 2.13397858,8.33123368 L1.28424232,8.33123368 C1.20411822,8.44734366 1.05774052,8.49787468 0.922990605,8.45594132 C0.788240687,8.41400796 0.696445584,8.28935901 0.696445584,8.1483149 C0.696445584,8.00727078 0.788240687,7.88262183 0.922990605,7.84068848 C1.05774052,7.79875512 1.20411822,7.84928614 1.28424232,7.96539612 L2.05783339,7.96539612 L3.50238503,6.52268527 L2.62726704,6.52268527 L1.84516285,7.30351687 C1.81082114,7.33781914 1.76428533,7.35713568 1.71573178,7.35724237 L0.587742361,7.35724237 C0.507593793,7.47331401 0.361226111,7.5238051 0.226499306,7.481857 C0.0917725005,7.4399089 0,7.31527125 0,7.17424481 C0,7.03321836 0.0917725005,6.90858072 0.226499306,6.86663262 C0.361226111,6.82468452 0.507593793,6.8751756 0.587742361,6.99124725 L1.64021718,6.99124725 L2.29273265,6.33913628 L1.64021718,5.68765551 L0.587742361,5.68765551 C0.507605208,5.80362684 0.361320489,5.85404788 0.226685827,5.81210355 C0.0920511655,5.77015921 0.00034921738,5.64559536 0.00034921738,5.50465795 C0.00034921738,5.36372055 0.0920511655,5.23915669 0.226685827,5.19721236 C0.361320489,5.15526803 0.507605208,5.20568907 0.587742361,5.3216604 L1.71557413,5.3216604 C1.76409143,5.32179367 1.81059905,5.34104189 1.8450052,5.37522834 L2.62710939,6.1568477 L3.50206973,6.1568477 L2.05767574,4.71319154 L1.28424232,4.71319154 C1.20411822,4.82930152 1.05774052,4.87983254 0.922990605,4.83789918 C0.788240687,4.79596582 0.696445584,4.67131687 0.696445584,4.53027276 C0.696445584,4.38922864 0.788240687,4.2645797 0.922990605,4.22264634 C1.05774052,4.18071298 1.20411822,4.231244 1.28424232,4.34735398 L2.13366328,4.34735398 C2.18218059,4.34748725 2.22868821,4.36673547 2.26309435,4.40092192 L3.76077422,5.89767337 L3.76077422,4.18791056 L3.11850603,3.54493765 C3.08431283,3.51054321 3.06505524,3.46407063 3.06490486,3.41558681 L3.06490486,2.70659928 C2.94882322,2.62653624 2.89833095,2.48033219 2.94028656,2.34575788 C2.98224216,2.21118357 3.10689459,2.11951588 3.2479371,2.11951588 C3.38897962,2.11951588 3.51363205,2.21118357 3.55558765,2.34575788 C3.59754325,2.48033219 3.54705098,2.62653624 3.43096935,2.70659928 L3.43096935,3.34011903 L4.07355284,3.98246173 C4.10808317,4.01664358 4.12744907,4.06324049 4.12731166,4.11181256 L4.12731166,6.15621749 L4.87536334,6.15621749 L4.87536334,3.90951479 L4.2326222,3.26701454 C4.19817959,3.23278659 4.17887724,3.186206 4.17902103,3.1376637 L4.17902103,1.79373845 C4.06283903,1.71366402 4.01227667,1.56737706 4.05423604,1.43271067 C4.0961954,1.29804428 4.22092167,1.20630609 4.36205327,1.20630609 C4.50318488,1.20630609 4.62791114,1.29804428 4.66987051,1.43271067 C4.71182988,1.56737706 4.66126752,1.71366402 4.54508552,1.79373845 L4.54508552,3.06203836 L5.18735371,3.70438106 C5.22181124,3.73859901 5.24111629,3.78518613 5.24095488,3.8337319 L5.24095488,6.15621749 L5.98916421,6.15621749 L5.98916421,2.71841574 L5.34626542,2.07607304 C5.3118674,2.04181525 5.29257311,1.9952541 5.29266425,1.9467222 L5.29266425,0.88103517 C5.17648225,0.800960736 5.12591989,0.654673779 5.16787925,0.520007392 C5.20983862,0.385341005 5.33456489,0.293602807 5.47569649,0.293602807 C5.6168281,0.293602807 5.74155436,0.385341005 5.78351373,0.520007392 C5.8254731,0.654673779 5.77491074,0.800960736 5.65872874,0.88103517 L5.65872874,1.87093931 L6.30162753,2.51328202 C6.33602555,2.5475398 6.35531984,2.59410095 6.3552287,2.64263285 L6.3552287,6.15605994 L6.82471193,6.15605994 L6.82471193,2.64263285 C6.82460983,2.59406777 6.84397029,2.54748393 6.87847075,2.51328202 L7.52121189,1.87093931 L7.52121189,0.88103517 C7.40513025,0.800972132 7.35463798,0.654768074 7.39659359,0.520193767 C7.43854919,0.38561946 7.56320162,0.293951769 7.70424413,0.293951769 C7.84528665,0.293951769 7.96993908,0.38561946 8.01189468,0.520193767 C8.05385028,0.654768074 8.00335801,0.800972132 7.88727638,0.88103517 L7.88727638,1.9467222 C7.88736752,1.9952541 7.86807323,2.04181525 7.8336752,2.07607304 L7.19093407,2.71841574 L7.19093407,6.15621749 L7.93898575,6.15621749 L7.93898575,3.8337319 C7.93889461,3.7852 7.95818889,3.73863885 7.99258692,3.70438106 L8.63532806,3.06203836 L8.63532806,1.79373845 C8.51918441,1.71363957 8.46866201,1.56736262 8.51063613,1.43271933 C8.55261025,1.29807604 8.67732521,1.20636043 8.81843913,1.20636043 C8.95955305,1.20636043 9.08426801,1.29807604 9.12624213,1.43271933 C9.16821625,1.56736262 9.11769384,1.71363957 9.0015502,1.79373845 L9.0015502,3.1376637 C9.00169399,3.186206 8.98239164,3.23278659 8.94794902,3.26701454 L8.30505024,3.90951479 L8.30505024,6.15621749 L9.05310192,6.15621749 L9.05310192,4.11212767 C9.05296451,4.0635556 9.07233041,4.01695869 9.10686074,3.98277683 L9.75007483,3.34011903 L9.75007483,2.70644173 C9.63389283,2.62636729 9.58333047,2.48008034 9.62528984,2.34541395 C9.66724921,2.21074756 9.79197547,2.11900937 9.93310708,2.11900937 C10.0742387,2.11900937 10.1989649,2.21074756 10.2409243,2.34541395 C10.2828837,2.48008034 10.2323213,2.62636729 10.1161393,2.70644173 L10.1161393,3.41542926 C10.1160573,3.46392674 10.0967893,3.51042426 10.0625381,3.54478009 L9.41979701,4.1871228 L9.41979701,5.89751582 L10.9174769,4.40076437 C10.951883,4.36657792 10.9983906,4.3473297 11.0469079,4.34719642 L11.8961713,4.34719642 C11.976284,4.23118675 12.1225787,4.18072578 12.2572365,4.22265537 C12.3918943,4.26458497 12.4836188,4.38916013 12.4836188,4.53011521 C12.4836188,4.67107029 12.3918943,4.79564545 12.2572365,4.83757504 C12.1225787,4.87950464 11.976284,4.82904367 11.8961713,4.71303399 L11.1230531,4.71303399 L9.67865915,6.15669015 L10.5536195,6.15669015 L11.3357237,5.37459813 C11.3700027,5.34022143 11.4165927,5.3209391 11.4651548,5.32103018 L12.5931442,5.32103018 C12.6732927,5.20495854 12.8196604,5.15446745 12.9543872,5.19641555 C13.089114,5.23836365 13.1808865,5.3630013 13.1808865,5.50402774 C13.1808865,5.64505419 13.089114,5.76969183 12.9543872,5.81163993 C12.8196604,5.85358804 12.6732927,5.80309695 12.5931442,5.6870253 L11.5406693,5.6870253 L10.8879962,6.33913628 L11.5406693,6.99124725 L12.5928289,6.99124725 C12.6729774,6.8751756 12.8193451,6.82468452 12.9540719,6.86663262 C13.0887987,6.90858072 13.1805712,7.03321836 13.1805712,7.17424481 C13.1805712,7.31527125 13.0887987,7.4399089 12.9540719,7.481857 C12.8193451,7.5238051 12.6729774,7.47331401 12.5928289,7.35724237 L11.4651548,7.35724237 C11.4165595,7.35734441 11.3699468,7.33799594 11.3357237,7.30351687 L10.5536195,6.52268527 L9.67865915,6.52268527 L11.1230531,7.96634143 L11.8966442,7.96634143 C11.9767569,7.85033176 12.1230517,7.79987079 12.2577094,7.84180038 C12.3923672,7.88372997 12.4840918,8.00830513 12.4840918,8.14926021 C12.4840918,8.2902153 12.3923672,8.41479046 12.2577094,8.45672005 C12.1230517,8.49864964 11.9767569,8.44818867 11.8966442,8.332179 L11.0473809,8.332179 C10.9988636,8.33204572 10.952356,8.3127975 10.9179498,8.27861105 L9.42026996,6.7818596 L9.42026996,8.49130731 L10.0630111,9.13380756 C10.0974986,9.16800546 10.116809,9.21460567 10.1166123,9.2631584 L10.1166123,9.97214593 C10.2326939,10.052209 10.2831862,10.198413 10.2412306,10.3329873 C10.199275,10.4675616 10.0746225,10.5592293 9.93358003,10.5592293 C9.79253751,10.5592293 9.66788508,10.4675616 9.62592948,10.3329873 C9.58397388,10.198413 9.63446615,10.052209 9.75054778,9.97214593 L9.75054778,9.33783842 L9.10780664,8.69549572 C9.07330618,8.6612938 9.05394572,8.61470997 9.05404782,8.56614488 L9.05404782,6.52268527 L8.30552319,6.52268527 L8.30552319,9.22518818 L8.94842198,9.86753088 C8.98262964,9.9019157 9.00188979,9.94839449 9.00202315,9.99688172 L9.00202315,10.8845341 C9.11816679,10.964633 9.1686892,11.1109099 9.12671508,11.2455532 C9.08474096,11.3801965 8.960026,11.4719121 8.81891208,11.4719121 C8.67779816,11.4719121 8.5530832,11.3801965 8.51110908,11.2455532 C8.46913496,11.1109099 8.51965737,10.964633 8.63580101,10.8845341 L8.63580101,10.0726646 L7.99353282,9.4303219 C7.95933962,9.39592747 7.94008203,9.34945489 7.93993165,9.30097107 L7.93993165,6.52268527 L7.19140702,6.52268527 L7.19140702,9.04731109 L7.83414816,9.68949623 C7.86835581,9.72388105 7.88761597,9.77035984 7.88774933,9.81884707 L7.88774933,11.340807 C8.00386932,11.420814 8.05439361,11.5670195 8.0124251,11.7015895 C7.97045659,11.8361595 7.84575931,11.9277862 7.70471709,11.9276911 L7.70471709,11.9276911 Z" id="Path" stroke="#00B8F0" stroke-width="1.28" fill="#FFFFFF" fill-rule="nonzero" stroke-linecap="round" stroke-linejoin="round"></path>
                    <path d="M10.9764382,6.18394678 C11.0245256,6.25568072 11.0245256,6.34932979 10.9764382,6.42106372 C10.6280305,6.93893973 9.09708641,8.97814541 6.59044326,8.97814541 C4.08380012,8.97814541 2.552856,6.93893973 2.20444836,6.42106372 C2.15636095,6.34932979 2.15636095,6.25568072 2.20444836,6.18394678 C2.552856,5.66607078 4.08380012,3.62670754 6.59044326,3.62670754 C9.09708641,3.62670754 10.6280305,5.66607078 10.9764382,6.18394678 Z" id="Path" fill="#FFFFFF" fill-rule="nonzero"></path>
                    <path d="M10.9928338,6.2132516 C10.1541331,7.12138585 8.65834503,8.31563596 6.59044326,8.31563596 C4.5225415,8.31563596 3.02754169,7.12138585 2.18789506,6.2132516 L2.20366011,6.18394678 C2.1555727,6.25568072 2.1555727,6.34932979 2.20366011,6.42106372 C2.552856,6.93893973 4.08380012,8.97814541 6.59044326,8.97814541 C9.09708641,8.97814541 10.6280305,6.93893973 10.9764382,6.42106372 C11.0245256,6.34932979 11.0245256,6.25568072 10.9764382,6.18394678" id="Path" fill="#C7F0FF" fill-rule="nonzero"></path>
                    <polyline id="Path" stroke="#4ACFFF" stroke-width="1.28" stroke-linecap="round" stroke-linejoin="round" points="4.31412752 4.23029226 4.4008353 5.02309787 4.75050414 5.02309787 5.78279969 6.15243623"></polyline>
                    <polyline id="Path" stroke="#4ACFFF" stroke-width="1.28" stroke-linecap="round" stroke-linejoin="round" points="8.86660136 4.23029226 8.78005123 5.02309787 8.43038239 5.02309787 7.39792919 6.15243623"></polyline>
                    <polyline id="Path" stroke="#4ACFFF" stroke-width="1.28" stroke-linecap="round" stroke-linejoin="round" points="4.31412752 8.3745607 4.4008353 7.58191264 4.75050414 7.58191264 5.78279969 6.45257428"></polyline>
                    <polyline id="Path" stroke="#4ACFFF" stroke-width="1.28" stroke-linecap="round" stroke-linejoin="round" points="8.86660136 8.3745607 8.78005123 7.58191264 8.43038239 7.58191264 7.39808684 6.45257428"></polyline>
                    <path d="M4.6779849,6.30242648 C4.6779849,7.35799331 5.53422168,8.2136993 6.59044326,8.2136993 C7.64666485,8.2136993 8.50290163,7.35799331 8.50290163,6.30242648 C8.50290163,5.24685964 7.64666485,4.39115365 6.59044326,4.39115365 C5.53422168,4.39115365 4.6779849,5.24685964 4.6779849,6.30242648 Z" id="Path" fill="#FF6242" fill-rule="nonzero"></path>
                    <path d="M10.9764382,6.18394678 C11.0245256,6.25568072 11.0245256,6.34932979 10.9764382,6.42106372 C10.6280305,6.93893973 9.09708641,8.97814541 6.59044326,8.97814541 C4.08380012,8.97814541 2.552856,6.93893973 2.20444836,6.42106372 C2.15636095,6.34932979 2.15636095,6.25568072 2.20444836,6.18394678 C2.552856,5.66607078 4.08380012,3.62670754 6.59044326,3.62670754 C9.09708641,3.62670754 10.6280305,5.66607078 10.9764382,6.18394678 Z" id="Path" stroke="#00658A" stroke-width="1.28" stroke-linecap="round" stroke-linejoin="round"></path>
                    <path d="M4.6779849,6.30242648 C4.6779849,7.35799331 5.53422168,8.2136993 6.59044326,8.2136993 C7.64666485,8.2136993 8.50290163,7.35799331 8.50290163,6.30242648 C8.50290163,5.24685964 7.64666485,4.39115365 6.59044326,4.39115365 C5.53422168,4.39115365 4.6779849,5.24685964 4.6779849,6.30242648 Z" id="Path" stroke="#000000" stroke-width="1.28" stroke-linecap="round" stroke-linejoin="round"></path>
                    <path d="M5.21478489,6.30242648 C5.21478489,7.06171064 5.83068813,7.67723207 6.59044326,7.67723207 C7.3501984,7.67723207 7.96610163,7.06171064 7.96610163,6.30242648 C7.96610163,5.54314231 7.3501984,4.92762088 6.59044326,4.92762088 C5.83068813,4.92762088 5.21478489,5.54314231 5.21478489,6.30242648 L5.21478489,6.30242648 Z" id="Path" fill="#FFA694" fill-rule="nonzero"></path>
                    <path d="M5.7690841,6.30242648 C5.7690841,6.75576942 6.13681912,7.12327648 6.59044326,7.12327648 C7.04406741,7.12327648 7.41180243,6.75576942 7.41180243,6.30242648 C7.41180243,5.84908354 7.04406741,5.48157647 6.59044326,5.48157647 C6.13681912,5.48157647 5.7690841,5.84908354 5.7690841,6.30242648 Z" id="Path" stroke="#FF6242" stroke-width="1.28" fill="#FFFFFF" fill-rule="nonzero" stroke-linecap="round" stroke-linejoin="round"></path>
                </g>
            </g>
        </g>
    </g>
</svg>